<svg id="SvgjsSvg1042" width="288" height="288" xmlns="http://www.w3.org/2000/svg" version="1.1" xmlns:xlink="http://www.w3.org/1999/xlink" xmlns:svgjs="http://svgjs.com/svgjs"><defs id="SvgjsDefs1043"></defs><g id="SvgjsG1044"><svg xmlns="http://www.w3.org/2000/svg" fill-rule="evenodd" clip-rule="evenodd" image-rendering="optimizeQuality" shape-rendering="geometricPrecision" text-rendering="geometricPrecision" viewBox="0 0 100 100" width="288" height="288"><path d="M 25.5,-0.5 C 27.1667,-0.5 28.8333,-0.5 30.5,-0.5C 32.705,3.57368 34.0383,7.90701 34.5,12.5C 32.8561,12.7135 31.3561,12.3802 30,11.5C 27.6361,7.78136 26.1361,3.78136 25.5,-0.5 Z" opacity=".716" fill="#ffffff" class="color000 svgShape"></path><path d="M 68.5,-0.5 C 70.1667,-0.5 71.8333,-0.5 73.5,-0.5C 72.8639,3.78136 71.3639,7.78136 69,11.5C 67.6439,12.3802 66.1439,12.7135 64.5,12.5C 64.9617,7.90701 66.295,3.57368 68.5,-0.5 Z" opacity=".714" fill="#ffffff" class="color000 svgShape"></path><path d="M 87.5,99.5 C 62.1667,99.5 36.8333,99.5 11.5,99.5C 11.5,93.5 11.5,87.5 11.5,81.5C 14.1667,81.5 16.8333,81.5 19.5,81.5C 21.058,64.7599 23.2247,48.0932 26,31.5C 30.9572,22.5235 38.6239,18.8568 49,20.5C 63.8023,18.6613 72.1356,24.9946 74,39.5C 75.8344,53.509 77.6677,67.509 79.5,81.5C 82.1667,81.5 84.8333,81.5 87.5,81.5C 87.5,87.5 87.5,93.5 87.5,99.5 Z M 39.5,25.5 C 45.8421,25.3338 52.1754,25.5005 58.5,26C 63.2353,27.0681 66.4019,29.9014 68,34.5C 70.3087,50.1602 72.4753,65.8269 74.5,81.5C 57.8333,81.5 41.1667,81.5 24.5,81.5C 26.1749,65.4345 28.3415,49.4345 31,33.5C 32.7302,29.5699 35.5636,26.9032 39.5,25.5 Z M 15.5,85.5 C 38.1667,85.5 60.8333,85.5 83.5,85.5C 83.5,88.8333 83.5,92.1667 83.5,95.5C 60.8333,95.5 38.1667,95.5 15.5,95.5C 15.5,92.1667 15.5,88.8333 15.5,85.5 Z" opacity=".884" fill="#ffffff" class="color000 svgShape"></path><path d="M 99.5,21.5 C 99.5,22.8333 99.5,24.1667 99.5,25.5C 96.087,27.2893 92.587,28.9559 89,30.5C 86.4979,29.4993 85.9979,27.8326 87.5,25.5C 90.8333,23.8333 94.1667,22.1667 97.5,20.5C 98.1835,20.8627 98.8501,21.1961 99.5,21.5 Z" opacity=".726" fill="#ffffff" class="color000 svgShape"></path><path d="M -0.5,21.5 C 4.76719,21.6356 9.10053,23.6356 12.5,27.5C 12.5658,29.2664 11.7324,30.2664 10,30.5C 6.413,28.9559 2.913,27.2893 -0.5,25.5C -0.5,24.1667 -0.5,22.8333 -0.5,21.5 Z" opacity=".736" fill="#ffffff" class="color000 svgShape"></path><path d="M -0.5,61.5 C -0.5,59.8333 -0.5,58.1667 -0.5,56.5C 3.29463,55.1025 6.96129,53.4358 10.5,51.5C 12.5706,52.7862 12.9039,54.4529 11.5,56.5C 7.69716,58.7376 3.69716,60.4043 -0.5,61.5 Z" opacity=".746" fill="#ffffff" class="color000 svgShape"></path><path d="M 99.5,56.5 C 99.5,58.1667 99.5,59.8333 99.5,61.5C 94.396,60.4504 90.0627,58.117 86.5,54.5C 86.4342,52.7336 87.2676,51.7336 89,51.5C 92.3089,53.5712 95.8089,55.2378 99.5,56.5 Z" opacity=".739" fill="#ffffff" class="color000 svgShape"></path></svg></g></svg>