<svg id="SvgjsSvg1059" width="288" height="288" xmlns="http://www.w3.org/2000/svg" version="1.1" xmlns:xlink="http://www.w3.org/1999/xlink" xmlns:svgjs="http://svgjs.com/svgjs"><defs id="SvgjsDefs1060"></defs><g id="SvgjsG1061"><svg xmlns="http://www.w3.org/2000/svg" fill-rule="evenodd" clip-rule="evenodd" image-rendering="optimizeQuality" shape-rendering="geometricPrecision" text-rendering="geometricPrecision" viewBox="0 0 52 52" width="288" height="288"><path d="M11.5-.5C12.8333-.5 14.1667-.5 15.5-.5 17.0507 1.91275 17.7174 4.57942 17.5 7.5 15.8561 7.71351 14.3561 7.38017 13 6.5 11.4632 4.14091 10.9632 1.80758 11.5-.5zM35.5-.5C36.8333-.5 38.1667-.5 39.5-.5 40.0368 1.80758 39.5368 4.14091 38 6.5 36.6439 7.38017 35.1439 7.71351 33.5 7.5 33.2826 4.57942 33.9493 1.91275 35.5-.5z" opacity=".745" fill="#ffffff" class="color000 svgShape"></path><path d="M 51.5,9.5 C 51.5,10.8333 51.5,12.1667 51.5,13.5C 49.0872,15.0507 46.4206,15.7174 43.5,15.5C 43.3824,11.5184 45.3824,9.18505 49.5,8.5C 50.1835,8.86273 50.8501,9.19607 51.5,9.5 Z" opacity=".75" fill="#ffffff" class="color000 svgShape"></path><path d="M -0.5,9.5 C 4.56007,8.6684 7.22674,10.6684 7.5,15.5C 4.57942,15.7174 1.91275,15.0507 -0.5,13.5C -0.5,12.1667 -0.5,10.8333 -0.5,9.5 Z" opacity=".768" fill="#ffffff" class="color000 svgShape"></path><path d="M 45.5,51.5 C 32.1667,51.5 18.8333,51.5 5.5,51.5C 5.5,48.8333 5.5,46.1667 5.5,43.5C 6.5,43.5 7.5,43.5 8.5,43.5C 9.25574,33.7873 10.4224,24.1206 12,14.5C 12.7845,12.714 13.9512,11.214 15.5,10C 22.1667,9.33333 28.8333,9.33333 35.5,10C 36.3333,10.8333 37.1667,11.6667 38,12.5C 40.409,22.6721 41.909,33.0054 42.5,43.5C 43.5,43.5 44.5,43.5 45.5,43.5C 45.5,46.1667 45.5,48.8333 45.5,51.5 Z M 20.5,13.5 C 24.9671,13.1326 29.3004,13.6326 33.5,15C 28.9145,15.1971 24.4145,15.6971 20,16.5C 18.8686,25.5182 17.7019,34.5182 16.5,43.5C 15.5,43.5 14.5,43.5 13.5,43.5C 14.1914,34.1115 15.358,24.7782 17,15.5C 18.3024,14.9152 19.469,14.2485 20.5,13.5 Z" opacity=".936" fill="#ffffff" class="color000 svgShape"></path><path d="M -0.5,29.5 C -0.5,28.1667 -0.5,26.8333 -0.5,25.5C 1.47344,24.5133 3.47344,23.5133 5.5,22.5C 9.03917,23.7959 9.3725,25.6293 6.5,28C 4.32253,29.2022 1.9892,29.7022 -0.5,29.5 Z" opacity=".714" fill="#ffffff" class="color000 svgShape"></path><path d="M 51.5,25.5 C 51.5,26.8333 51.5,28.1667 51.5,29.5C 47.6128,30.0546 44.6128,28.7213 42.5,25.5C 43.1709,24.0542 44.3376,23.3875 46,23.5C 48.0093,23.7579 49.8427,24.4245 51.5,25.5 Z" opacity=".733" fill="#ffffff" class="color000 svgShape"></path></svg></g></svg>