<svg xmlns="http://www.w3.org/2000/svg" version="1.0" width="512.000000pt" height="512.000000pt" viewBox="0 0 512.000000 512.000000" preserveAspectRatio="xMidYMid meet">

<g transform="translate(0.000000,512.000000) scale(0.100000,-0.100000)" fill="#ffffff" stroke="none">
<path d="M1655 4733 c-15 -65 -32 -140 -39 -168 l-12 -50 -102 -8 c-56 -4 -145 -19 -199 -32 -75 -19 -99 -22 -105 -12 -4 6 -45 72 -90 145 -48 79 -86 131 -93 128 -16 -6 -467 -285 -479 -296 -5 -5 28 -68 78 -149 47 -77 86 -144 86 -150 0 -5 -23 -36 -51 -68 -49 -56 -126 -166 -160 -230 l-17 -30 -167 39 c-92 21 -169 37 -170 36 -6 -7 -133 -563 -130 -566 3 -4 145 -38 311 -77 19 -4 22 -14 28 -91 5 -73 16 -133 53 -290 4 -18 -15 -33 -129 -104 -73 -46 -138 -88 -145 -94 -9 -8 23 -68 137 -251 82 -132 151 -244 153 -248 1 -5 69 33 150 83 132 82 150 91 166 78 10 -7 46 -36 80 -65 34 -29 99 -76 146 -104 71 -43 84 -55 80 -73 -3 -12 -21 -86 -39 -166 -19 -80 -33 -146 -31 -148 6 -7 550 -132 560 -129 5 2 28 77 50 168 l40 164 100 7 c55 4 143 18 195 32 52 13 97 22 100 21 3 -2 43 -65 89 -140 46 -74 88 -138 93 -141 7 -5 498 292 498 301 0 2 -41 69 -91 149 l-91 147 44 47 c51 55 123 156 163 228 l28 51 146 -34 c80 -19 157 -35 170 -36 24 -2 26 4 91 278 57 241 64 281 51 286 -9 3 -81 21 -161 39 -80 18 -148 36 -152 40 -4 3 -13 53 -18 110 -10 91 -36 223 -54 270 -5 11 33 39 139 104 80 49 145 94 145 99 0 5 -68 119 -151 253 l-151 243 -81 -51 c-45 -28 -109 -68 -143 -90 -34 -21 -65 -38 -70 -38 -4 0 -24 15 -44 34 -47 45 -184 143 -237 169 -24 12 -43 26 -43 31 0 6 16 82 37 168 20 87 34 160 31 164 -5 5 -542 133 -559 134 -3 0 -18 -53 -34 -117z m120 -829 c250 -59 463 -289 504 -544 25 -152 5 -276 -65 -419 -38 -77 -62 -110 -128 -176 -90 -90 -170 -137 -296 -176 -94 -29 -251 -31 -350 -5 -303 80 -510 347 -510 657 0 449 406 767 845 663z" fill="#ffffff"/>
<path d="M4285 3959 c-3 -13 -14 -58 -23 -99 l-17 -75 -65 -6 c-36 -4 -90 -14 -121 -22 l-56 -14 -48 79 c-26 43 -52 81 -57 84 -6 4 -224 -121 -247 -142 -2 -1 20 -40 48 -86 28 -46 51 -87 51 -92 0 -5 -17 -28 -38 -51 -22 -22 -52 -63 -67 -91 -16 -27 -29 -50 -31 -52 -1 -2 -38 6 -82 17 -125 33 -116 39 -147 -96 -15 -65 -29 -128 -32 -140 -4 -18 0 -23 24 -29 15 -3 60 -14 98 -23 l70 -17 6 -70 c4 -38 12 -87 18 -109 6 -22 11 -45 11 -52 0 -6 -38 -35 -84 -63 l-84 -52 69 -111 c38 -62 73 -118 78 -126 6 -10 26 -2 89 38 45 28 84 51 87 51 3 0 36 -23 73 -51 36 -28 81 -58 99 -67 22 -10 32 -21 28 -31 -9 -32 -44 -185 -42 -186 3 -3 274 -65 280 -65 3 0 15 45 27 100 l23 100 46 0 c25 0 73 7 106 15 33 8 67 14 76 15 10 0 36 -32 65 -80 27 -44 53 -80 58 -80 7 0 210 121 244 145 1 2 -22 42 -52 90 l-55 88 41 46 c22 25 54 70 70 99 22 38 35 51 47 48 78 -24 183 -42 186 -32 2 6 16 63 30 126 15 63 29 123 31 132 4 14 -12 20 -96 39 l-100 22 0 33 c0 32 -23 166 -34 194 -4 11 16 28 70 60 41 25 80 50 85 57 7 8 -12 46 -61 127 -39 64 -75 118 -78 120 -4 2 -46 -20 -93 -49 l-87 -54 -23 25 c-13 14 -55 46 -94 72 -38 25 -71 46 -73 47 -1 1 7 40 18 86 11 46 20 91 20 100 0 11 -29 22 -117 42 -65 15 -128 30 -140 33 -17 5 -23 1 -28 -17z m40 -485 c299 -77 399 -439 182 -656 -147 -147 -386 -151 -541 -8 -56 52 -112 160 -121 235 -25 198 110 389 305 431 76 17 106 16 175 -2z" fill="#ffffff"/>
<path d="M3415 2000 c-14 -57 -21 -71 -39 -74 -11 -2 -45 -8 -74 -13 l-52 -10 -30 51 c-16 28 -34 57 -39 64 -8 13 -68 -21 -339 -192 l-43 -27 26 -42 c51 -83 51 -78 5 -146 -24 -34 -48 -60 -54 -58 -25 10 -126 30 -130 26 -6 -6 -96 -394 -96 -412 0 -10 20 -19 66 -27 74 -14 77 -19 89 -111 l7 -55 -62 -38 c-33 -21 -60 -41 -58 -46 12 -30 223 -360 231 -360 5 0 36 16 68 37 l59 36 23 -20 c12 -11 38 -31 58 -44 l36 -24 -17 -73 -17 -72 36 -10 c138 -36 386 -89 391 -83 4 5 13 37 20 71 7 35 18 65 24 67 6 1 40 7 75 12 l64 10 40 -64 c37 -60 41 -63 61 -50 11 8 92 58 178 111 87 54 160 102 164 107 3 5 -11 36 -31 69 l-36 59 37 53 c21 29 41 57 44 61 4 4 37 0 74 -9 37 -9 69 -14 73 -11 4 5 103 408 103 422 0 2 -29 9 -65 16 -35 7 -68 15 -73 18 -4 3 -13 38 -20 76 -9 55 -9 72 1 78 6 5 35 23 64 40 l51 32 -115 185 c-63 102 -119 184 -125 182 -5 -1 -34 -18 -64 -37 l-55 -35 -59 42 c-33 23 -60 46 -60 50 0 5 7 38 16 74 9 36 15 66 13 68 -6 4 -405 96 -417 96 -5 0 -18 -32 -27 -70z m160 -539 c139 -61 217 -218 181 -361 -33 -128 -116 -210 -244 -240 -69 -16 -131 -7 -210 31 -207 100 -232 393 -46 536 86 65 217 79 319 34z" fill="#ffffff"/>
</g>
</svg>