<svg xmlns="http://www.w3.org/2000/svg" version="1.0" width="512.000000pt" height="512.000000pt" viewBox="0 0 512.000000 512.000000" preserveAspectRatio="xMidYMid meet">

<g transform="translate(0.000000,512.000000) scale(0.100000,-0.100000)" fill="#ffffff" stroke="none">
<path d="M825 4135 c-21 -20 -25 -34 -25 -80 l0 -55 -360 0 -360 0 0 -80 0 -80 360 0 360 0 0 -80 0 -80 -320 0 -320 0 0 -80 0 -80 320 0 320 0 0 -80 0 -80 -120 0 -120 0 0 -80 0 -80 120 0 120 0 0 -80 0 -80 -240 0 -240 0 0 -80 0 -80 240 0 240 0 0 -80 0 -80 -360 0 -360 0 0 -80 0 -80 360 0 360 0 0 -80 0 -80 -240 0 -240 0 0 -80 0 -80 240 0 240 0 0 -55 c0 -46 4 -60 25 -80 l24 -25 991 0 991 0 24 25 25 24 0 991 0 991 -25 24 -24 25 -991 0 -991 0 -24 -25z m695 -510 l0 -376 25 -24 c39 -40 68 -32 187 46 l108 72 108 -72 c119 -78 148 -86 187 -46 l25 24 0 376 0 375 280 0 280 0 0 -880 0 -880 -880 0 -880 0 0 160 0 160 360 0 360 0 0 80 0 80 -360 0 -360 0 0 80 0 80 240 0 240 0 0 80 0 80 -240 0 -240 0 0 80 0 80 120 0 120 0 0 80 0 80 -120 0 -120 0 0 80 0 80 80 0 80 0 0 80 0 80 -80 0 -80 0 0 160 0 160 280 0 280 0 0 -375z m480 90 l0 -285 -67 45 c-37 25 -79 45 -93 45 -14 0 -56 -20 -93 -45 l-67 -45 0 285 0 285 160 0 160 0 0 -285z" fill="#ffffff"/>
<path d="M3285 3991 c-90 -23 -173 -90 -215 -176 l-25 -50 -3 -922 -3 -923 -1455 0 -1455 0 -24 -25 c-25 -24 -25 -26 -25 -215 0 -189 0 -191 25 -215 l24 -25 373 0 374 0 10 -69 c30 -191 172 -347 359 -396 268 -69 545 117 589 396 l10 69 716 0 716 0 10 -69 c30 -191 172 -347 359 -396 268 -69 545 117 589 396 l10 69 374 0 373 0 24 25 c25 24 25 26 25 215 0 189 0 191 -25 215 -22 23 -32 25 -119 25 l-95 0 -3 503 -3 502 -27 78 c-32 95 -442 805 -506 878 -27 31 -68 60 -110 81 l-67 33 -385 2 c-212 1 -398 -2 -415 -6z m235 -511 l0 -360 -160 0 -160 0 0 294 c0 305 3 331 43 375 36 39 75 50 180 51 l97 0 0 -360z m590 325 c36 -25 72 -81 231 -354 104 -178 189 -325 189 -327 0 -2 -191 -4 -425 -4 l-425 0 0 361 0 361 194 -4 194 -3 42 -30z m513 -872 c9 -21 13 -159 15 -520 l3 -493 -721 0 -720 0 0 520 0 520 705 0 705 0 13 -27z m-3651 -1211 c-15 -22 -36 -58 -46 -80 l-19 -42 -334 0 -333 0 0 80 0 80 380 0 380 0 -28 -38z m539 -3 c67 -36 98 -68 137 -143 22 -43 26 -64 26 -136 1 -78 -2 -90 -33 -148 -38 -70 -70 -100 -145 -140 -43 -22 -64 -26 -136 -26 -72 0 -93 4 -136 26 -75 40 -107 70 -145 140 -31 58 -34 70 -33 148 0 100 24 160 89 225 100 100 249 121 376 54z m1861 3 c-15 -22 -36 -58 -46 -80 l-19 -42 -747 0 -747 0 -19 42 c-10 22 -31 58 -46 80 l-28 38 840 0 840 0 -28 -38z m539 -3 c67 -36 98 -68 137 -143 22 -43 26 -64 26 -136 1 -78 -2 -90 -33 -148 -38 -70 -70 -100 -145 -140 -43 -22 -64 -26 -136 -26 -72 0 -93 4 -136 26 -75 40 -107 70 -145 140 -31 58 -34 70 -33 148 0 100 24 160 89 225 100 100 249 121 376 54z m969 -39 l0 -80 -333 0 -334 0 -19 42 c-10 22 -31 58 -46 80 l-28 38 380 0 380 0 0 -80z" fill="#ffffff"/>
</g>
</svg>