<svg id="SvgjsSvg1053" width="288" height="288" xmlns="http://www.w3.org/2000/svg" version="1.1" xmlns:xlink="http://www.w3.org/1999/xlink" xmlns:svgjs="http://svgjs.com/svgjs"><defs id="SvgjsDefs1054"></defs><g id="SvgjsG1055"><svg xmlns="http://www.w3.org/2000/svg" fill-rule="evenodd" clip-rule="evenodd" image-rendering="optimizeQuality" shape-rendering="geometricPrecision" text-rendering="geometricPrecision" viewBox="0 0 80 80" width="288" height="288"><path d="M 49.5,7.5 C 53.8461,7.33432 58.1794,7.50098 62.5,8C 62.9574,8.41395 63.2907,8.91395 63.5,9.5C 60.516,12.9846 57.3493,16.318 54,19.5C 54.0187,21.1075 54.1854,22.7741 54.5,24.5C 55.9305,24.4208 57.2638,24.7542 58.5,25.5C 61.9846,22.516 65.318,19.3493 68.5,16C 69.4491,15.3828 70.2825,15.5494 71,16.5C 73.8547,26.2708 71.0213,33.7708 62.5,39C 58.9085,39.7886 55.4085,39.6219 52,38.5C 51.1667,39.3333 50.3333,40.1667 49.5,41C 55.3333,46.8333 61.1667,52.6667 67,58.5C 70.5,69.6667 66.6667,73.5 55.5,70C 49.6667,64.1667 43.8333,58.3333 38,52.5C 32.1667,58.3333 26.3333,64.1667 20.5,70C 9.33333,73.5 5.5,69.6667 9,58.5C 15.8333,51.6667 22.6667,44.8333 29.5,38C 24.8185,32.301 19.3185,27.801 13,24.5C 11.3333,21.8333 9.66667,19.1667 8,16.5C 7.63535,13.5065 8.96868,11.5065 12,10.5C 15.2324,12.2002 18.399,14.0335 21.5,16C 24.801,22.3185 29.301,27.8185 35,32.5C 36.8333,30.6667 38.6667,28.8333 40.5,27C 39.1023,22.7958 39.269,18.6291 41,14.5C 43.4412,11.5464 46.2745,9.21311 49.5,7.5 Z M 50.5,10.5 C 52.8568,10.3367 55.1902,10.5034 57.5,11C 54.8333,13.6667 52.1667,16.3333 49.5,19C 50.6532,21.6157 51.6532,24.2824 52.5,27C 55.1494,27.4523 57.6494,28.2857 60,29.5C 62.6667,26.8333 65.3333,24.1667 68,21.5C 68.4663,34.7148 62.633,38.8815 50.5,34C 39.9731,25.7258 39.9731,17.8925 50.5,10.5 Z M 21.5,24.5 C 16.3238,23.6621 12.9905,20.6621 11.5,15.5C 17.0406,15.6601 20.3739,18.6601 21.5,24.5 Z M 41.5,30.5 C 43.9635,32.4611 46.2968,34.6278 48.5,37C 38.1667,47.3333 27.8333,57.6667 17.5,68C 12,69.1667 9.83333,67 11,61.5C 21.3688,51.2984 31.5355,40.9651 41.5,30.5 Z M 46.5,43.5 C 52.7981,49.2972 58.9648,55.2972 65,61.5C 66.1667,67 64,69.1667 58.5,68C 52.5,62 46.5,56 40.5,50C 42.7059,47.9633 44.7059,45.7966 46.5,43.5 Z" opacity=".604" fill="#ffffff" class="color000 svgShape"></path><path d="M42.5 37.5C44.337 37.6395 44.6704 38.3061 43.5 39.5 42.7025 39.0431 42.3691 38.3764 42.5 37.5zM39.5 40.5C41.337 40.6395 41.6704 41.3061 40.5 42.5 39.7025 42.0431 39.3691 41.3764 39.5 40.5zM36.5 43.5C38.337 43.6395 38.6704 44.3061 37.5 45.5 36.7025 45.0431 36.3691 44.3764 36.5 43.5zM33.5 46.5C35.337 46.6395 35.6704 47.3061 34.5 48.5 33.7025 48.0431 33.3691 47.3764 33.5 46.5zM30.5 49.5C32.337 49.6395 32.6704 50.3061 31.5 51.5 30.7025 51.0431 30.3691 50.3764 30.5 49.5zM43.5 49.5C45.337 49.6395 45.6704 50.3061 44.5 51.5 43.7025 51.0431 43.3691 50.3764 43.5 49.5zM27.5 52.5C29.337 52.6395 29.6704 53.3061 28.5 54.5 27.7025 54.0431 27.3691 53.3764 27.5 52.5zM46.5 52.5C48.337 52.6395 48.6704 53.3061 47.5 54.5 46.7025 54.0431 46.3691 53.3764 46.5 52.5zM24.5 55.5C26.337 55.6395 26.6704 56.3061 25.5 57.5 24.7025 57.0431 24.3691 56.3764 24.5 55.5zM49.5 55.5C51.337 55.6395 51.6704 56.3061 50.5 57.5 49.7025 57.0431 49.3691 56.3764 49.5 55.5zM21.5 58.5C23.337 58.6395 23.6704 59.3061 22.5 60.5 21.7025 60.0431 21.3691 59.3764 21.5 58.5zM52.5 58.5C54.337 58.6395 54.6704 59.3061 53.5 60.5 52.7025 60.0431 52.3691 59.3764 52.5 58.5zM18.5 61.5C20.337 61.6395 20.6704 62.3061 19.5 63.5 18.7025 63.0431 18.3691 62.3764 18.5 61.5zM55.5 61.5C57.337 61.6395 57.6704 62.3061 56.5 63.5 55.7025 63.0431 55.3691 62.3764 55.5 61.5zM15.5 64.5C17.337 64.6395 17.6704 65.3061 16.5 66.5 15.7025 66.0431 15.3691 65.3764 15.5 64.5zM58.5 64.5C60.337 64.6395 60.6704 65.3061 59.5 66.5 58.7025 66.0431 58.3691 65.3764 58.5 64.5z" opacity=".766" fill="#ffffff" class="color000 svgShape"></path></svg></g></svg>