<svg xmlns="http://www.w3.org/2000/svg" version="1.0" width="512.000000pt" height="512.000000pt" viewBox="0 0 512.000000 512.000000" preserveAspectRatio="xMidYMid meet">

<g transform="translate(0.000000,512.000000) scale(0.100000,-0.100000)" fill="#ffffff" stroke="none">
<path d="M1470 4941 c-106 -33 -177 -121 -187 -230 -5 -54 5 -85 223 -686 144 -395 240 -646 259 -674 19 -28 51 -56 85 -75 53 -29 61 -31 194 -35 131 -3 138 -2 132 15 -3 11 -142 395 -309 854 l-304 835 -34 2 c-19 1 -45 -2 -59 -6z" fill="#ffffff"/>
<path d="M1753 4928 c4 -13 142 -398 309 -856 l303 -832 1160 2 1160 3 56 26 c79 37 133 90 171 167 l33 67 3 446 c3 503 0 538 -64 669 -51 103 -161 213 -264 264 -141 69 -71 66 -1544 66 l-1328 0 5 -22z" fill="#ffffff"/>
<path d="M2732 2964 c4 -148 -2 -144 229 -144 l179 0 -15 38 c-8 20 -30 75 -48 122 l-33 85 -158 3 -158 3 4 -107z" fill="#ffffff"/>
<path d="M3230 3064 c0 -4 28 -81 63 -170 l62 -164 142 0 c117 0 152 -4 193 -19 64 -24 114 -62 145 -109 13 -20 124 -280 246 -577 216 -523 223 -542 223 -610 2 -157 -113 -286 -269 -302 -46 -5 -55 -9 -50 -22 47 -116 75 -198 75 -220 0 -19 -33 -71 -108 -172 -59 -79 -114 -159 -121 -177 -32 -77 19 -176 105 -202 39 -12 63 -6 445 95 421 111 467 128 515 190 27 36 54 111 54 154 0 14 -153 540 -342 1169 l-342 1142 -518 0 c-285 0 -518 -3 -518 -6z" fill="#ffffff"/>
<path d="M3433 2528 c8 -18 119 -307 247 -641 l234 -609 74 4 c70 3 76 5 107 40 65 70 71 48 -171 634 -119 291 -223 539 -231 551 -25 39 -73 53 -177 53 l-96 0 13 -32z" fill="#ffffff"/>
<path d="M275 2031 c-46 -21 -79 -54 -94 -94 -8 -19 -11 -286 -11 -828 0 -657 2 -805 14 -832 16 -39 61 -82 99 -96 19 -8 413 -11 1256 -11 l1228 0 43 23 c30 16 51 37 67 67 l23 43 0 803 c0 542 -3 812 -11 831 -15 42 -68 92 -109 103 -22 6 -483 10 -1250 10 -1160 0 -1217 -1 -1255 -19z m299 -272 l26 -31 0 -618 0 -618 -26 -31 c-33 -40 -83 -43 -119 -6 l-25 24 0 631 0 631 25 24 c36 37 86 34 119 -6z m327 18 c37 -28 39 -48 39 -417 l0 -362 -29 -29 c-38 -37 -82 -39 -116 -4 l-25 24 0 376 0 376 25 24 c27 27 79 33 106 12z m334 7 c42 -16 45 -45 45 -419 0 -364 -2 -384 -39 -412 -28 -22 -76 -15 -105 13 l-26 27 0 374 0 374 25 24 c24 25 65 32 100 19z m360 -19 l25 -24 0 -376 0 -376 -25 -24 c-41 -42 -105 -31 -133 22 -17 31 -17 725 0 756 28 53 92 64 133 22z m340 0 l25 -24 0 -376 0 -376 -25 -24 c-34 -35 -78 -33 -116 4 l-29 29 0 365 0 365 26 31 c33 40 83 43 119 6z m340 0 l25 -24 0 -376 0 -376 -25 -24 c-31 -32 -75 -32 -112 -1 l-28 24 0 377 0 377 28 24 c37 31 81 31 112 -1z m342 1 l28 -24 0 -630 0 -630 -24 -26 c-18 -19 -35 -26 -61 -26 -26 0 -43 7 -61 26 l-24 26 0 630 0 630 28 24 c16 13 41 24 57 24 16 0 41 -11 57 -24z m-1699 -1032 c20 -23 22 -35 22 -130 0 -109 -13 -155 -45 -168 -35 -13 -76 -6 -100 19 -24 23 -25 30 -25 144 l0 119 32 27 c38 32 81 29 116 -11z m333 7 c29 -29 29 -31 29 -146 0 -110 -1 -117 -25 -140 -16 -17 -35 -25 -60 -25 -25 0 -44 8 -60 25 -24 23 -25 30 -25 140 0 115 0 117 29 146 38 38 74 38 112 0z m340 0 c29 -29 29 -31 29 -146 0 -110 -1 -117 -25 -140 -24 -25 -65 -32 -100 -19 -33 13 -45 59 -45 169 0 104 1 107 29 136 38 38 74 38 112 0z m322 17 c42 -22 46 -38 47 -161 0 -112 -1 -119 -25 -142 -16 -17 -35 -25 -57 -25 -68 1 -88 38 -88 167 0 107 11 140 50 160 31 16 46 16 73 1z m346 -3 c16 -8 31 -22 35 -30 3 -9 6 -70 6 -135 0 -116 -1 -119 -26 -139 -37 -29 -85 -27 -115 5 -22 23 -24 35 -27 132 -3 117 6 148 48 169 32 16 45 16 79 -2z" fill="#ffffff"/>
</g>
</svg>