<svg xmlns="http://www.w3.org/2000/svg" version="1.0" width="225.000000pt" height="225.000000pt" viewBox="0 0 225.000000 225.000000" preserveAspectRatio="xMidYMid meet">

<g transform="translate(0.000000,225.000000) scale(0.100000,-0.100000)" fill="#ffffff" stroke="none">
<path d="M1270 1782 c-293 -52 -325 -64 -360 -133 -21 -40 -28 -129 -10 -129 6 0 10 19 10 43 0 57 29 107 76 134 43 24 493 107 569 105 53 -2 123 -27 153 -55 44 -41 52 -69 52 -191 l0 -114 -31 -11 c-35 -12 -35 -11 5 -107 57 -136 70 -252 40 -355 -26 -87 -49 -117 -100 -130 -39 -10 -61 -29 -33 -29 18 0 253 72 281 86 64 32 108 130 115 255 6 101 -7 168 -49 253 -46 91 -175 216 -193 187 -3 -6 7 -17 22 -25 16 -8 51 -38 79 -68 113 -119 153 -293 104 -452 -28 -90 -65 -127 -157 -157 -40 -12 -75 -20 -78 -17 -3 3 5 27 17 54 45 102 33 261 -31 415 l-29 68 29 6 29 7 0 132 c0 122 -2 136 -23 167 -38 56 -93 86 -192 102 -16 3 -149 -16 -295 -41z" fill="#ffffff"/>
<path d="M1421 1730 c-106 -22 -196 -41 -199 -44 -16 -16 21 -13 189 19 230 43 229 43 229 55 0 13 4 14 -219 -30z" fill="#ffffff"/>
<path d="M1030 1702 c0 -13 73 -33 83 -23 6 6 -7 14 -29 20 -47 13 -54 13 -54 3z" fill="#ffffff"/>
<path d="M1570 1700 c0 -5 4 -10 8 -10 4 0 15 -13 25 -29 13 -22 17 -52 17 -124 l0 -95 -112 -26 c-62 -14 -128 -29 -146 -32 -36 -7 -54 -24 -25 -24 10 0 82 14 161 32 l142 32 0 111 c0 87 -4 116 -17 135 -25 37 -53 53 -53 30z" fill="#ffffff"/>
<path d="M1155 1660 c-22 -25 -34 -85 -35 -177 l0 -71 -152 65 c-84 36 -171 71 -193 77 -22 6 -47 20 -57 31 -14 17 -28 20 -106 20 -119 0 -132 -11 -132 -105 0 -76 19 -131 52 -154 25 -18 103 -21 143 -6 29 11 55 63 55 110 0 16 4 30 9 30 5 0 75 -31 155 -69 l146 -70 0 -393 0 -393 -75 -23 c-41 -12 -75 -27 -75 -32 0 -6 3 -10 7 -10 10 0 717 231 722 236 20 19 -37 6 -216 -52 -114 -36 -214 -69 -220 -71 -9 -4 -13 9 -13 45 0 48 2 51 33 61 17 5 91 28 164 50 l132 40 71 -31 c63 -28 71 -34 68 -56 -3 -24 -24 -32 -353 -138 -427 -138 -405 -132 -405 -102 0 19 -12 30 -65 56 -36 18 -70 32 -76 32 -21 0 2 -18 56 -44 51 -24 76 -49 62 -62 -7 -7 -187 88 -187 99 0 4 8 7 17 7 28 0 307 81 318 92 16 16 -34 6 -205 -43 -178 -50 -286 -59 -349 -27 -38 20 -51 22 -51 9 0 -5 23 -19 52 -31 43 -19 65 -22 130 -18 42 3 76 1 75 -4 -1 -5 45 -34 103 -65 l105 -56 398 128 397 128 0 39 c0 39 -1 40 -60 65 -33 15 -57 30 -53 33 5 4 41 17 81 29 39 12 72 26 72 31 0 13 -5 12 -288 -76 -130 -40 -238 -71 -240 -69 -5 4 -16 475 -11 475 14 0 542 140 547 144 17 17 -27 9 -276 -53 l-272 -69 0 84 c0 50 -4 86 -11 90 -8 5 -10 40 -7 111 4 86 8 109 26 133 12 16 22 32 22 35 0 11 -18 4 -35 -15z m-453 -88 c11 -11 9 -16 -6 -28 -27 -19 -146 -19 -172 1 -19 15 -19 15 1 31 25 19 157 16 177 -4z m232 -104 c94 -39 165 -73 158 -76 -23 -7 -12 -22 18 -22 l30 0 0 -217 c0 -120 3 -295 7 -389 l6 -171 -33 -11 c-64 -23 -60 -49 -60 381 l0 393 -157 74 c-178 83 -184 87 -163 100 8 5 17 10 20 10 3 0 81 -32 174 -72z m-404 27 c0 -14 5 -25 10 -25 6 0 10 8 10 18 0 16 8 19 60 19 52 0 60 -3 60 -19 0 -10 5 -18 10 -18 6 0 10 11 10 25 0 14 5 25 10 25 6 0 10 -22 10 -50 0 -60 -18 -73 -102 -73 -80 0 -108 20 -108 78 0 33 4 45 15 45 9 0 15 -9 15 -25z m120 -119 c42 5 44 4 26 -10 -28 -23 -108 -21 -137 3 l-24 19 45 -8 c25 -5 65 -6 90 -4z" fill="#ffffff"/>
<path d="M566 1571 c-4 -6 -6 -11 -4 -11 68 -8 119 -7 110 2 -15 15 -98 22 -106 9z" fill="#ffffff"/>
<path d="M530 1444 c0 -8 5 -12 10 -9 6 4 8 11 5 16 -9 14 -15 11 -15 -7z" fill="#ffffff"/>
<path d="M665 1451 c-3 -5 -1 -12 5 -16 5 -3 10 1 10 9 0 18 -6 21 -15 7z" fill="#ffffff"/>
<path d="M1385 1606 c-93 -18 -158 -35 -155 -41 3 -6 7 -9 10 -9 3 1 83 16 178 34 94 19 172 37 172 42 0 13 -32 9 -205 -26z" fill="#ffffff"/>
<path d="M1890 1403 c57 -90 90 -250 66 -322 -6 -18 -5 -22 5 -19 25 8 32 91 15 175 -18 90 -73 206 -99 211 -14 3 -12 -5 13 -45z" fill="#ffffff"/>
<path d="M410 1403 c-66 -11 -90 -24 -99 -56 -8 -28 -5 -35 18 -55 14 -12 59 -39 98 -59 70 -34 76 -36 147 -30 104 9 396 67 396 79 0 6 -13 8 -32 4 -134 -27 -310 -57 -366 -62 -65 -6 -70 -5 -152 37 -71 37 -86 48 -88 71 -3 28 16 38 101 53 20 3 37 10 37 15 0 10 -14 11 -60 3z" fill="#ffffff"/>
<path d="M1253 1357 c-24 -4 -43 -12 -43 -18 0 -5 18 -7 43 -3 47 8 51 9 46 21 -2 5 -23 5 -46 0z" fill="#ffffff"/>
<path d="M360 1351 c0 -20 103 -74 149 -79 52 -5 390 44 405 59 15 14 -15 11 -195 -17 -90 -14 -183 -24 -207 -21 -24 3 -65 19 -93 36 -55 34 -59 35 -59 22z" fill="#ffffff"/>
<path d="M245 1320 c-15 -17 -20 -44 -25 -138 -6 -113 -5 -118 17 -137 21 -18 22 -24 13 -57 -7 -25 -17 -38 -28 -39 -14 0 -13 -3 6 -16 25 -18 29 -33 7 -33 -8 0 -15 -4 -15 -10 0 -5 6 -10 14 -10 13 0 26 -20 26 -42 0 -6 -6 -5 -15 2 -9 7 -18 10 -22 6 -9 -8 10 -27 30 -30 14 -2 66 -56 53 -56 -3 0 -21 10 -41 21 -20 12 -39 18 -43 15 -8 -8 -13 -4 107 -79 52 -33 112 -65 134 -73 50 -18 153 -18 237 0 88 19 299 86 306 97 8 14 -18 11 -82 -12 -128 -44 -285 -79 -359 -79 -65 0 -81 4 -145 37 l-73 37 32 9 c18 4 34 14 37 22 5 12 9 12 28 0 46 -30 122 -38 199 -21 130 29 367 98 367 107 0 14 -7 12 -157 -31 -256 -73 -310 -78 -396 -39 -22 10 -25 16 -20 48 3 20 6 37 7 38 1 1 27 -5 59 -14 52 -13 67 -13 135 1 118 24 372 97 372 107 0 13 -4 12 -140 -27 -212 -61 -286 -74 -344 -62 -28 6 -58 11 -67 11 -11 1 -20 17 -28 51 -23 98 -82 157 -136 136 -49 -19 -60 -2 -57 92 4 115 10 140 40 165 25 21 26 23 6 23 -11 0 -29 -9 -39 -20z m121 -307 c44 -48 70 -177 39 -203 -55 -46 -136 134 -95 211 14 26 26 24 56 -8z m-51 -179 c19 -32 34 -46 56 -51 33 -6 38 -19 10 -28 -60 -19 -131 123 -113 224 6 32 7 28 13 -32 5 -45 16 -82 34 -113z" fill="#ffffff"/>
<path d="M260 1285 c0 -6 126 -87 165 -107 40 -20 85 -30 85 -20 0 5 -20 17 -44 26 -24 9 -75 37 -113 61 -61 40 -93 54 -93 40z" fill="#ffffff"/>
<path d="M928 1243 c-10 -2 -18 -9 -18 -15 0 -11 60 -1 75 13 9 9 -25 11 -57 2z" fill="#ffffff"/>
<path d="M1660 1240 c-8 -5 -12 -11 -10 -13 8 -8 70 5 70 14 0 12 -41 11 -60 -1z" fill="#ffffff"/>
<path d="M715 1198 c-82 -16 -152 -32 -154 -34 -20 -19 74 -7 282 38 26 5 47 14 47 19 0 12 1 12 -175 -23z" fill="#ffffff"/>
<path d="M988 1224 c-11 -11 -10 -182 1 -189 5 -3 11 -2 13 2 6 16 -7 194 -14 187z" fill="#ffffff"/>
<path d="M1385 1174 c-115 -31 -212 -57 -214 -60 -2 -2 -2 -7 2 -10 5 -5 114 21 410 99 34 9 52 28 25 26 -7 0 -107 -25 -223 -55z" fill="#ffffff"/>
<path d="M1713 1153 c-24 -5 -32 -23 -10 -23 24 0 57 12 57 21 0 9 -8 10 -47 2z" fill="#ffffff"/>
<path d="M516 1128 c-9 -35 -7 -198 3 -198 11 0 22 202 12 213 -5 5 -11 -2 -15 -15z" fill="#ffffff"/>
<path d="M1422 1071 c-225 -67 -251 -76 -241 -86 9 -8 483 132 487 144 5 16 12 17 -246 -58z" fill="#ffffff"/>
<path d="M1928 1005 c-20 -53 -4 -62 18 -10 16 39 18 55 6 55 -4 0 -15 -20 -24 -45z" fill="#ffffff"/>
<path d="M1703 1033 c-7 -2 -13 -9 -13 -15 0 -11 60 -1 75 13 10 10 -40 11 -62 2z" fill="#ffffff"/>
<path d="M1415 953 c-126 -36 -232 -67 -234 -69 -26 -24 66 -3 437 103 29 8 50 19 47 24 -8 12 12 16 -250 -58z" fill="#ffffff"/>
<path d="M212 999 c2 -7 10 -15 17 -17 8 -3 12 1 9 9 -2 7 -10 15 -17 17 -8 3 -12 -1 -9 -9z" fill="#ffffff"/>
<path d="M865 974 c-60 -19 -153 -43 -205 -54 -96 -21 -112 -20 -197 5 -32 10 -29 -9 3 -24 47 -21 107 -23 179 -7 136 32 365 98 365 107 0 14 -28 9 -145 -27z" fill="#ffffff"/>
<path d="M1703 953 c-24 -5 -32 -23 -10 -23 24 0 57 12 57 21 0 9 -8 10 -47 2z" fill="#ffffff"/>
<path d="M1415 870 c-127 -37 -231 -73 -233 -80 -3 -8 1 -11 9 -8 8 3 113 33 234 68 121 34 224 66 228 70 25 22 -29 11 -238 -50z" fill="#ffffff"/>
<path d="M825 858 c-174 -51 -268 -64 -343 -45 -50 13 -38 -9 13 -23 27 -8 69 -10 103 -7 78 8 405 99 410 115 5 16 14 18 -183 -40z" fill="#ffffff"/>
<path d="M940 778 c-167 -49 -335 -88 -378 -88 -26 0 -67 9 -91 20 -47 22 -61 24 -61 12 0 -5 19 -18 42 -28 76 -34 176 -26 373 30 156 44 196 59 184 70 -2 2 -33 -5 -69 -16z" fill="#ffffff"/>
<path d="M230 741 c0 -6 18 -22 41 -36 53 -34 73 -41 68 -26 -6 17 -109 75 -109 62z" fill="#ffffff"/>
<path d="M232 700 c4 -14 135 -100 150 -100 17 0 6 16 -25 36 -81 52 -130 77 -125 64z" fill="#ffffff"/>
<path d="M925 689 c-33 -11 -121 -36 -195 -55 -158 -42 -203 -41 -293 5 -72 37 -71 17 1 -22 81 -44 134 -45 292 -4 193 49 280 76 280 87 0 13 -15 11 -85 -11z" fill="#ffffff"/>
</g>
</svg>