<svg xmlns="http://www.w3.org/2000/svg" version="1.0" width="512.000000pt" height="512.000000pt" viewBox="0 0 512.000000 512.000000" preserveAspectRatio="xMidYMid meet" transform="matrix(-1, 0, 0, 1, 0, 0)">

<g transform="translate(0.000000,512.000000) scale(0.100000,-0.100000)" fill="#ffffff" stroke="none">
<path d="M2435 5087 c-22 -8 -58 -25 -80 -39 -22 -15 -549 -536 -1171 -1160 -1272 -1275 -1178 -1168 -1178 -1328 0 -160 -96 -52 1187 -1337 950 -951 1149 -1146 1196 -1170 50 -25 66 -28 156 -28 84 0 107 4 147 23 191 94 262 318 160 502 -16 29 -377 398 -1006 1028 l-981 982 981 983 c629 629 990 998 1006 1027 102 184 30 409 -160 502 -57 27 -195 35 -257 15z" fill="#ffffff"/>
<path d="M4630 5079 c-51 -20 -140 -106 -1202 -1167 -1296 -1295 -1203 -1190 -1203 -1352 0 -162 -93 -57 1203 -1352 1111 -1110 1149 -1146 1207 -1168 49 -18 75 -21 145 -18 73 3 94 9 148 38 73 39 124 92 161 170 21 46 26 69 25 140 0 159 78 69 -1043 1193 l-996 997 996 998 c1121 1123 1043 1033 1043 1192 1 71 -4 94 -25 140 -37 78 -87 131 -161 170 -56 30 -73 34 -153 37 -73 3 -101 -1 -145 -18z" fill="#ffffff"/>
</g>
</svg>