<svg xmlns="http://www.w3.org/2000/svg" version="1.0" width="512.000000pt" height="512.000000pt" viewBox="0 0 512.000000 512.000000" preserveAspectRatio="xMidYMid meet">

<g transform="translate(0.000000,512.000000) scale(0.100000,-0.100000)" fill="#69BD54" stroke="none">
<path d="M428 4756 c-60 -16 -119 -57 -153 -106 -55 -79 -55 -81 -55 -752 l0 -618 -85 0 c-78 0 -88 -2 -110 -25 -25 -24 -25 -26 -25 -208 0 -171 1 -186 21 -211 19 -25 25 -26 109 -26 l89 0 3 -802 3 -803 22 -41 c34 -64 71 -103 127 -132 l51 -27 707 -3 708 -3 5 -27 c52 -255 183 -435 397 -543 189 -96 444 -97 631 -3 84 43 167 105 173 131 10 40 -4 73 -38 88 -39 16 -46 13 -128 -41 -295 -198 -693 -86 -839 237 -110 245 -38 528 178 689 289 217 705 112 856 -215 58 -125 69 -234 38 -383 -19 -90 -15 -106 29 -131 15 -9 35 -11 51 -7 38 9 53 42 82 178 l5 27 708 3 707 3 51 27 c56 29 93 68 127 132 l22 41 3 803 3 802 89 0 c84 0 90 1 109 26 20 25 21 40 21 211 0 182 0 184 -25 208 -22 23 -32 25 -109 25 l-85 0 -3 181 c-3 176 -4 181 -27 200 -30 25 -62 24 -95 -2 l-26 -20 0 -180 0 -180 -87 3 -88 3 -5 563 c-5 543 -6 564 -24 578 -30 21 -3942 21 -3972 0 -18 -14 -19 -35 -24 -578 l-5 -563 -87 -3 -88 -3 0 618 c0 595 1 619 20 650 10 18 31 40 47 50 26 17 120 18 2124 18 l2098 0 28 -21 c60 -44 63 -60 63 -380 l0 -291 23 -21 c31 -29 72 -28 103 3 l25 25 -3 313 c-3 293 -4 315 -24 358 -27 58 -85 116 -143 143 l-46 21 -2105 2 c-1678 1 -2115 -1 -2152 -11z m3992 -971 l0 -505 -85 0 -85 0 0 395 0 396 -25 24 c-31 32 -69 32 -100 0 l-25 -24 0 -396 0 -395 -85 0 -84 0 -3 401 -3 401 -24 19 c-30 25 -62 24 -95 -2 l-26 -20 0 -400 0 -400 -87 3 -88 3 -5 402 c-5 387 -6 403 -25 417 -41 32 -95 14 -115 -38 -6 -17 -10 -168 -10 -407 l0 -379 -85 0 -85 0 0 395 0 396 -25 24 c-13 14 -36 25 -50 25 -14 0 -37 -11 -50 -25 l-25 -24 0 -396 0 -395 -85 0 -85 0 0 395 0 396 -25 24 c-30 30 -64 32 -99 4 l-26 -20 0 -400 0 -399 -85 0 -85 0 0 373 c0 208 -4 387 -10 406 -23 82 -117 82 -140 0 -6 -19 -10 -198 -10 -406 l0 -373 -85 0 -85 0 0 399 0 400 -26 20 c-35 28 -69 26 -99 -4 l-25 -24 0 -396 0 -395 -85 0 -85 0 0 395 0 396 -25 24 c-13 14 -36 25 -50 25 -14 0 -37 -11 -50 -25 l-25 -24 0 -396 0 -395 -85 0 -85 0 0 379 c0 239 -4 390 -10 407 -20 52 -74 70 -115 38 -19 -14 -20 -30 -25 -417 l-5 -402 -87 -3 -88 -3 0 400 0 400 -26 20 c-35 28 -69 26 -99 -4 l-25 -24 0 -396 0 -395 -85 0 -85 0 0 395 0 396 -25 24 c-31 32 -69 32 -100 0 l-25 -24 0 -396 0 -395 -85 0 -85 0 0 505 0 505 1860 0 1860 0 0 -505z m550 -740 l0 -85 -2410 0 -2410 0 0 85 0 85 2410 0 2410 0 0 -85z m-4420 -588 c5 -330 6 -349 24 -363 23 -16 59 -18 86 -4 36 19 40 63 40 396 l0 324 85 0 85 0 0 -558 c0 -548 0 -559 20 -580 30 -32 82 -30 109 4 21 26 21 35 21 580 l0 554 85 0 85 0 0 -69 c0 -85 22 -121 76 -121 57 0 74 27 74 115 l0 76 88 -3 87 -3 3 -75 c3 -84 20 -110 72 -110 53 0 72 28 78 113 l5 77 83 0 84 0 0 -75 c0 -88 17 -115 74 -115 54 0 76 36 76 121 l0 69 85 0 85 0 0 -69 c0 -85 22 -121 76 -121 57 0 74 27 74 115 l0 75 85 0 85 0 0 -368 c0 -205 4 -382 10 -401 23 -82 117 -82 140 0 6 19 10 196 10 401 l0 368 85 0 85 0 0 -75 c0 -88 17 -115 74 -115 54 0 76 36 76 121 l0 69 85 0 85 0 0 -69 c0 -85 22 -121 75 -121 56 0 75 30 75 117 l0 73 84 0 83 0 5 -77 c6 -85 25 -113 77 -113 52 0 66 21 71 107 l5 78 88 3 87 3 0 -76 c0 -88 17 -115 74 -115 54 0 76 36 76 121 l0 69 85 0 85 0 0 -554 c0 -545 0 -554 21 -580 26 -33 73 -35 106 -4 l23 21 0 559 0 558 85 0 85 0 0 -670 0 -670 -628 0 -628 0 -38 49 c-20 28 -55 66 -77 85 -21 20 -39 38 -39 41 0 3 198 5 439 5 l440 0 20 26 c12 15 21 33 21 40 0 26 -23 62 -47 73 -34 16 -2612 16 -2646 0 -24 -11 -47 -47 -47 -73 0 -7 9 -25 21 -40 l20 -26 440 0 c241 0 439 -2 439 -5 0 -3 -18 -21 -39 -41 -22 -19 -57 -57 -77 -85 l-38 -49 -628 0 -628 0 0 164 c0 177 -8 217 -46 235 -35 16 -47 14 -78 -10 l-26 -20 0 -238 c0 -229 1 -239 21 -257 20 -18 48 -19 666 -22 588 -2 644 -4 639 -19 -6 -14 -17 -59 -31 -125 l-5 -28 -683 0 c-762 0 -730 -3 -769 70 -17 33 -18 77 -18 813 l0 778 88 -3 87 -3 5 -348z m4200 -425 c0 -735 -1 -779 -18 -812 -39 -73 -7 -70 -769 -70 l-683 0 -5 27 c-14 67 -25 112 -31 126 -5 15 51 17 639 19 618 3 646 4 666 22 21 19 21 20 21 736 0 394 3 720 7 723 3 4 44 7 90 7 l83 0 0 -778z" fill="#69BD54"/>
<path d="M1211 2404 c-19 -25 -21 -40 -21 -201 0 -171 0 -174 25 -198 30 -30 64 -32 99 -4 l26 20 0 183 c0 170 -1 184 -20 204 -30 32 -82 30 -109 -4z" fill="#69BD54"/>
<path d="M1540 2410 c-19 -19 -20 -33 -20 -205 0 -177 1 -185 22 -205 45 -42 111 -13 123 54 4 19 5 102 3 186 -3 145 -4 153 -27 171 -30 25 -76 24 -101 -1z" fill="#69BD54"/>
<path d="M1862 2407 c-21 -22 -22 -32 -22 -204 l0 -182 26 -20 c35 -28 69 -26 99 4 25 24 25 27 25 198 0 161 -2 176 -21 201 -27 34 -77 36 -107 3z" fill="#69BD54"/>
<path d="M2181 2404 c-19 -25 -21 -40 -21 -201 0 -171 0 -174 25 -198 30 -30 64 -32 99 -4 l26 20 0 183 c0 178 -1 183 -23 204 -33 31 -80 29 -106 -4z" fill="#69BD54"/>
<path d="M2830 2408 c-19 -20 -20 -34 -20 -204 l0 -183 26 -20 c35 -28 69 -26 99 4 25 24 25 27 25 198 0 161 -2 176 -21 201 -27 34 -79 36 -109 4z" fill="#69BD54"/>
<path d="M3151 2404 c-19 -25 -21 -40 -21 -201 0 -171 0 -174 25 -198 13 -14 36 -25 50 -25 14 0 37 11 50 25 25 24 25 26 25 203 0 174 -1 179 -23 200 -33 31 -80 29 -106 -4z" fill="#69BD54"/>
<path d="M3479 2411 c-23 -18 -24 -26 -27 -171 -2 -84 -1 -167 3 -186 12 -67 78 -96 123 -54 21 20 22 28 22 205 0 172 -1 186 -20 205 -25 25 -71 26 -101 1z" fill="#69BD54"/>
<path d="M3800 2410 c-19 -19 -20 -33 -20 -204 l0 -185 26 -20 c33 -26 65 -27 95 -2 23 19 24 24 27 198 3 170 2 180 -18 206 -27 34 -80 37 -110 7z" fill="#69BD54"/>
<path d="M2621 1166 l-146 -145 -66 65 c-72 69 -99 78 -140 45 -17 -13 -23 -29 -23 -56 0 -33 9 -46 100 -136 141 -139 124 -142 337 69 93 92 175 179 183 194 27 53 -8 108 -69 108 -24 0 -55 -26 -176 -144z" fill="#69BD54"/>
</g>
</svg>