<svg xmlns="http://www.w3.org/2000/svg" version="1.0" width="512.000000pt" height="512.000000pt" viewBox="0 0 512.000000 512.000000" preserveAspectRatio="xMidYMid meet">

<g transform="translate(0.000000,512.000000) scale(0.100000,-0.100000)" fill="#ffffff" stroke="none">
<path d="M34 4416 l-34 -34 0 -366 c0 -403 1 -411 60 -441 37 -19 63 -19 100 0 60 31 60 31 60 357 l0 298 301 0 301 0 34 34 c28 28 34 42 34 76 0 34 -6 48 -34 76 l-34 34 -377 0 -377 0 -34 -34z" fill="#ffffff"/>
<path d="M4264 4416 c-28 -28 -34 -42 -34 -76 0 -34 6 -48 34 -76 l34 -34 301 0 301 0 0 -298 c0 -326 0 -326 60 -357 37 -19 63 -19 100 0 59 30 60 38 60 441 l0 366 -34 34 -34 34 -377 0 -377 0 -34 -34z" fill="#ffffff"/>
<path d="M721 3766 c-52 -29 -50 23 -51 -1204 0 -1242 -3 -1184 55 -1210 49 -23 94 -15 131 22 l34 34 0 1152 0 1152 -34 34 c-27 27 -42 34 -72 34 -22 -1 -50 -7 -63 -14z" fill="#ffffff"/>
<path d="M1161 3764 c-52 -37 -51 -15 -51 -985 0 -1002 -3 -951 67 -984 66 -31 132 1 153 76 14 47 13 1782 0 1831 -6 20 -22 46 -37 58 -32 25 -99 27 -132 4z" fill="#ffffff"/>
<path d="M1614 3769 c-11 -6 -28 -23 -37 -39 -16 -26 -17 -106 -17 -943 0 -571 4 -925 10 -941 11 -30 65 -66 98 -66 13 0 36 7 52 15 63 33 60 -16 60 996 l0 921 -34 34 c-27 27 -42 34 -72 33 -22 0 -48 -5 -60 -10z" fill="#ffffff"/>
<path d="M2047 3759 c-15 -11 -31 -37 -37 -57 -8 -26 -10 -318 -8 -944 l3 -908 33 -32 c27 -27 40 -33 77 -33 37 0 50 6 77 33 l33 32 3 893 c2 490 0 912 -3 936 -9 64 -49 101 -108 101 -30 0 -53 -7 -70 -21z" fill="#ffffff"/>
<path d="M2484 3746 l-34 -34 0 -1152 0 -1152 34 -34 c28 -28 42 -34 76 -34 34 0 48 6 76 34 l34 34 0 1152 0 1152 -34 34 c-28 28 -42 34 -76 34 -34 0 -48 -6 -76 -34z" fill="#ffffff"/>
<path d="M2930 3752 c-19 -19 -30 -43 -35 -73 -3 -24 -5 -446 -3 -936 l3 -893 33 -32 c27 -27 40 -33 77 -33 37 0 50 6 77 33 l33 32 3 908 c2 626 0 918 -8 944 -15 51 -52 78 -107 78 -36 0 -50 -6 -73 -28z" fill="#ffffff"/>
<path d="M3374 3746 l-34 -34 0 -921 c0 -1012 -3 -963 60 -996 16 -8 39 -15 52 -15 33 0 87 36 98 66 6 16 10 370 10 941 0 836 -1 917 -17 943 -20 34 -52 50 -99 50 -28 0 -44 -8 -70 -34z" fill="#ffffff"/>
<path d="M3827 3760 c-15 -12 -31 -38 -37 -58 -13 -49 -14 -1784 0 -1831 21 -75 87 -107 153 -76 70 33 67 -18 67 984 0 970 1 948 -51 985 -33 23 -100 21 -132 -4z" fill="#ffffff"/>
<path d="M4264 3746 l-34 -34 0 -1152 0 -1152 34 -34 c37 -37 82 -45 131 -22 58 26 55 -32 55 1207 0 863 -3 1146 -12 1166 -15 33 -56 55 -104 55 -28 0 -44 -8 -70 -34z" fill="#ffffff"/>
<path d="M58 1545 c-57 -32 -58 -41 -58 -441 l0 -366 34 -34 34 -34 377 0 377 0 34 34 c28 28 34 42 34 76 0 34 -6 48 -34 76 l-34 34 -301 0 -301 0 0 300 0 300 -27 30 c-34 38 -93 49 -135 25z" fill="#ffffff"/>
<path d="M1185 1551 c-27 -12 -61 -51 -70 -79 -9 -32 12 -88 42 -112 17 -13 41 -20 69 -20 93 0 140 110 77 180 -30 33 -82 47 -118 31z" fill="#ffffff"/>
<path d="M1623 1545 c-37 -16 -63 -60 -63 -106 0 -48 56 -99 108 -99 51 0 99 37 107 84 10 50 -17 104 -59 121 -43 18 -52 18 -93 0z" fill="#ffffff"/>
<path d="M2074 1550 c-67 -27 -87 -129 -35 -181 24 -24 38 -29 76 -29 65 0 105 39 105 102 0 83 -74 138 -146 108z" fill="#ffffff"/>
<path d="M2965 1551 c-50 -22 -79 -82 -64 -135 22 -78 122 -104 180 -47 61 61 24 175 -61 186 -19 3 -44 1 -55 -4z" fill="#ffffff"/>
<path d="M3402 1543 c-38 -19 -62 -58 -62 -104 0 -22 10 -41 34 -65 28 -28 42 -34 76 -34 34 0 48 6 76 34 24 24 34 43 34 65 0 47 -27 91 -65 107 -43 18 -52 17 -93 -3z" fill="#ffffff"/>
<path d="M3855 1551 c-75 -33 -91 -141 -28 -191 34 -27 101 -27 136 0 30 24 50 78 42 113 -15 57 -98 101 -150 78z" fill="#ffffff"/>
<path d="M4964 1550 c-12 -4 -31 -21 -43 -36 -20 -26 -21 -35 -21 -325 l0 -299 -301 0 -301 0 -34 -34 c-28 -28 -34 -42 -34 -76 0 -34 6 -48 34 -76 l34 -34 377 0 377 0 34 34 34 34 0 366 c0 403 -1 411 -60 441 -32 17 -64 18 -96 5z" fill="#ffffff"/>
</g>
</svg>