<?xml version="1.0" standalone="no"?>
<!DOCTYPE svg PUBLIC "-//W3C//DTD SVG 20010904//EN"
 "http://www.w3.org/TR/2001/REC-SVG-20010904/DTD/svg10.dtd">
<svg version="1.0" xmlns="http://www.w3.org/2000/svg"
 width="512.000000pt" height="512.000000pt" viewBox="0 0 512.000000 512.000000"
 preserveAspectRatio="xMidYMid meet">

<g transform="translate(0.000000,512.000000) scale(0.100000,-0.100000)"
fill="#ffffff" stroke="none">
<path d="M2715 5114 c-749 -33 -1305 -124 -1871 -308 -194 -63 -258 -99 -346
-195 -63 -68 -120 -175 -137 -259 -60 -291 123 -582 414 -657 73 -19 553 -98
720 -120 510 -64 1078 -103 1575 -108 l245 -2 60 28 c64 30 120 84 348 335
312 343 521 669 558 868 32 172 -98 360 -261 378 -233 26 -1053 51 -1305 40z
m593 -780 c30 -20 30 -68 0 -88 -20 -14 -130 -16 -985 -16 -578 0 -972 4 -986
9 -45 17 -47 84 -4 101 12 5 456 9 987 9 858 1 968 -1 988 -15z"/>
<path d="M4325 4994 c55 -91 70 -146 69 -254 0 -83 -5 -105 -33 -175 -66 -164
-196 -382 -329 -550 -73 -92 -220 -259 -371 -420 l-121 -130 71 -3 c112 -5
240 13 296 42 52 26 148 121 334 331 370 419 539 703 527 888 -8 117 -81 228
-183 276 -41 19 -104 32 -237 46 l-57 6 34 -57z"/>
<path d="M997 3513 c4 -15 8 -71 8 -123 l-1 -95 -63 -135 c-336 -714 -503
-1292 -551 -1909 -22 -295 -9 -485 44 -625 93 -244 400 -493 731 -592 129 -38
230 -39 307 -1 70 34 140 110 162 175 48 139 25 283 -81 514 -62 136 -60 146
43 225 89 68 114 107 122 184 5 59 -9 101 -59 179 -40 62 -49 105 -26 131 6 8
38 32 70 53 147 99 244 255 292 471 15 66 35 154 45 195 10 41 124 329 253
640 129 311 234 566 233 567 -1 1 -105 9 -231 18 -271 19 -569 47 -785 76
-185 24 -478 68 -503 75 -15 5 -17 2 -10 -23z"/>
<path d="M2603 3255 c-6 -16 -106 -259 -223 -540 -116 -280 -214 -523 -217
-539 l-6 -29 180 5 c171 4 182 5 235 31 61 30 101 74 123 138 40 111 -5 704
-69 924 l-12 40 -11 -30z"/>
</g>
</svg>
