<?xml version="1.0" encoding="UTF-8"?>
<!DOCTYPE svg PUBLIC "-//W3C//DTD SVG 1.1//EN" "http://www.w3.org/Graphics/SVG/1.1/DTD/svg11.dtd">
<svg xmlns="http://www.w3.org/2000/svg" version="1.1" width="96px" height="96px" style="shape-rendering:geometricPrecision; text-rendering:geometricPrecision; image-rendering:optimizeQuality; fill-rule:evenodd; clip-rule:evenodd" xmlns:xlink="http://www.w3.org/1999/xlink">
<g><path style="opacity:0.612" fill="#000000" d="M 74.5,5.5 C 78.7538,6.58515 81.5871,9.25182 83,13.5C 85.0571,19.0149 85.7238,24.6815 85,30.5C 84.586,30.9574 84.086,31.2907 83.5,31.5C 82.7845,24.9719 81.2845,18.6386 79,12.5C 77.7365,10.393 75.9032,9.39297 73.5,9.5C 73.4326,8.04125 73.7659,6.70792 74.5,5.5 Z"/></g>
<g><path style="opacity:0.606" fill="#000000" d="M 22.5,7.5 C 23.9953,7.41483 24.9953,8.08149 25.5,9.5C 17.0987,15.6359 12.932,23.9692 13,34.5C 11.4555,35.8213 10.2888,35.4879 9.5,33.5C 10.1664,22.8334 14.4997,14.1668 22.5,7.5 Z"/></g>
<g><path style="opacity:0.598" fill="#000000" d="M 64.5,11.5 C 67.505,11.253 70.005,12.253 72,14.5C 74.4064,18.8855 75.9064,23.5522 76.5,28.5C 75.325,28.719 74.325,28.3857 73.5,27.5C 72.3324,24.1609 71.1658,20.8276 70,17.5C 68.7365,15.393 66.9032,14.393 64.5,14.5C 64.5,13.5 64.5,12.5 64.5,11.5 Z"/></g>
<g><path style="opacity:0.577" fill="#000000" d="M 26.5,13.5 C 28.2252,13.8425 28.7252,14.8425 28,16.5C 24.6139,19.2682 22.9472,22.6015 23,26.5C 21.9887,27.3366 20.8221,27.67 19.5,27.5C 19.2672,21.438 21.6005,16.7714 26.5,13.5 Z"/></g>
<g><path style="opacity:0.767" fill="#0a0301" d="M 52.5,15.5 C 58.3648,15.5343 62.5314,18.201 65,23.5C 66.5624,35.9363 68.7291,48.2696 71.5,60.5C 76.8029,66.107 79.6362,72.7736 80,80.5C 58.2285,81.2675 36.3951,81.9342 14.5,82.5C 14.0291,75.7493 15.8624,69.7493 20,64.5C 21.7751,52.8495 23.4417,41.1828 25,29.5C 25.6534,23.3351 28.8201,19.1684 34.5,17C 40.6807,16.8276 46.6807,16.3276 52.5,15.5 Z"/></g>
<g><path style="opacity:1" fill="#e94622" d="M 36.5,18.5 C 43.175,18.3337 49.8417,18.5004 56.5,19C 58.9393,19.7739 60.7727,21.2739 62,23.5C 64.2337,36.5 66.4004,49.5 68.5,62.5C 53.4801,61.3113 38.4801,61.3113 23.5,62.5C 24.485,50.7711 25.985,39.1044 28,27.5C 29.6878,23.3148 32.5212,20.3148 36.5,18.5 Z"/></g>
<g><path style="opacity:0.98" fill="#140d0a" d="M 35.5,21.5 C 36.8333,21.5 38.1667,21.5 39.5,21.5C 40.4155,28.8149 40.5821,36.1483 40,43.5C 36.8169,45.5234 33.3169,46.0234 29.5,45C 28.9415,44.2753 28.6082,43.4419 28.5,42.5C 29.6028,37.1525 30.7695,31.8192 32,26.5C 32.9973,24.6769 34.1639,23.0103 35.5,21.5 Z"/></g>
<g><path style="opacity:1" fill="#cddcdc" d="M 36.5,23.5 C 38.2579,29.6003 38.7579,35.9336 38,42.5C 35.9592,43.4231 33.7925,43.7564 31.5,43.5C 31.2544,36.2664 32.9211,29.5997 36.5,23.5 Z"/></g>
<g><path style="opacity:0.986" fill="#161110" d="M 29.5,47.5 C 32.8499,47.335 36.1832,47.5017 39.5,48C 40.435,50.3806 40.7683,52.8806 40.5,55.5C 36.4823,56.671 32.4823,56.671 28.5,55.5C 28.0111,52.8862 28.3445,50.2196 29.5,47.5 Z"/></g>
<g><path style="opacity:1" fill="#d1e0e0" d="M 31.5,49.5 C 33.8333,49.5 36.1667,49.5 38.5,49.5C 38.5,50.8333 38.5,52.1667 38.5,53.5C 35.8333,53.5 33.1667,53.5 30.5,53.5C 30.4326,52.0413 30.7659,50.7079 31.5,49.5 Z"/></g>
<g><path style="opacity:1" fill="#ec4722" d="M 27.5,63.5 C 41.1904,63.3466 54.8571,63.8466 68.5,65C 74.3431,67.507 77.0098,72.007 76.5,78.5C 56.8184,78.287 37.1517,78.6203 17.5,79.5C 16.8336,71.4712 20.1669,66.1379 27.5,63.5 Z"/></g>
</svg>
