<svg xmlns="http://www.w3.org/2000/svg" version="1.0" width="200.000000pt" height="200.000000pt" viewBox="0 0 200.000000 200.000000" preserveAspectRatio="xMidYMid meet">

<g transform="translate(0.000000,200.000000) scale(0.100000,-0.100000)" fill="#ffffff" stroke="none">
<path d="M315 1886 c-41 -18 -83 -69 -90 -109 -3 -18 -5 -352 -3 -744 3 -701 3 -712 24 -739 39 -53 70 -68 144 -72 l70 -4 0 -47 c0 -26 5 -52 12 -59 17 -17 259 -17 276 0 7 7 12 34 12 60 l0 48 240 0 240 0 0 -48 c0 -26 5 -53 12 -60 17 -17 259 -17 276 0 7 7 12 33 12 59 l0 47 70 4 c74 4 105 19 144 72 21 27 21 36 21 766 0 730 0 739 -21 766 -11 15 -33 37 -48 48 -27 21 -38 21 -694 23 -539 2 -673 0 -697 -11z m1360 -91 l25 -24 0 -711 0 -711 -25 -24 -24 -25 -651 0 -651 0 -24 25 -25 24 0 711 0 711 25 24 24 25 651 0 651 0 24 -25z m-995 -1595 c0 -18 -7 -20 -70 -20 -63 0 -70 2 -70 20 0 18 7 20 70 20 63 0 70 -2 70 -20z m780 0 c0 -18 -7 -20 -70 -20 -63 0 -70 2 -70 20 0 18 7 20 70 20 63 0 70 -2 70 -20z" fill="#ffffff"/>
<path d="M640 1724 c-227 -82 -293 -362 -125 -529 65 -66 125 -90 225 -90 100 0 160 24 225 90 66 65 90 125 90 225 0 100 -24 160 -90 225 -82 82 -222 116 -325 79z m48 -175 c-8 -5 -26 4 -50 28 -34 33 -36 38 -20 48 9 7 31 17 47 22 l30 10 3 -50 c2 -33 -1 -53 -10 -58z m170 79 l22 -12 -36 -37 c-48 -49 -64 -42 -64 27 l0 54 28 -10 c15 -6 37 -16 50 -22z m-245 -154 c-3 -10 -23 -14 -59 -14 l-54 0 10 28 c6 15 16 37 22 50 l12 22 37 -36 c21 -20 35 -43 32 -50z m355 19 l11 -33 -54 0 c-67 0 -73 14 -27 62 32 34 37 36 47 20 7 -9 17 -32 23 -49z m-188 -33 c11 -11 20 -29 20 -40 0 -11 -9 -29 -20 -40 -11 -11 -29 -20 -40 -20 -11 0 -29 9 -40 20 -11 11 -20 29 -20 40 0 11 9 29 20 40 11 11 29 20 40 20 11 0 29 -9 40 -20z m-167 -94 c3 -7 -11 -30 -32 -50 l-37 -36 -12 22 c-6 13 -16 35 -22 51 l-10 27 54 0 c36 0 56 -4 59 -14z m357 -13 c-6 -16 -16 -38 -22 -51 l-12 -22 -37 36 c-49 48 -42 64 27 64 l54 0 -10 -27z m-270 -119 l0 -54 -27 10 c-16 6 -38 16 -51 22 l-22 12 36 37 c48 49 64 42 64 -27z m162 -19 c-9 -7 -32 -17 -49 -23 l-33 -11 0 54 c0 67 14 73 62 27 34 -32 36 -37 20 -47z" fill="#ffffff"/>
<path d="M1212 1608 c-17 -17 -17 -299 0 -316 17 -17 339 -17 356 0 17 17 17 299 0 316 -8 8 -62 12 -178 12 -116 0 -170 -4 -178 -12z m288 -158 l0 -90 -110 0 -110 0 0 90 0 90 110 0 110 0 0 -90z" fill="#ffffff"/>
<path d="M1212 1068 c-6 -6 -12 -20 -12 -29 0 -35 23 -40 195 -37 147 3 169 5 179 21 8 12 8 22 0 35 -10 15 -32 17 -180 20 -123 2 -173 -1 -182 -10z" fill="#ffffff"/>
<path d="M640 1004 c-227 -82 -293 -362 -125 -529 65 -66 125 -90 225 -90 100 0 160 24 225 90 66 65 90 125 90 225 0 100 -24 160 -90 225 -82 82 -222 116 -325 79z m48 -175 c-8 -5 -26 4 -50 28 -34 33 -36 38 -20 48 9 7 31 17 47 22 l30 10 3 -50 c2 -33 -1 -53 -10 -58z m170 79 l22 -12 -36 -37 c-48 -49 -64 -42 -64 27 l0 54 28 -10 c15 -6 37 -16 50 -22z m-245 -154 c-3 -10 -23 -14 -59 -14 l-54 0 10 28 c6 15 16 37 22 50 l12 22 37 -36 c21 -20 35 -43 32 -50z m355 19 l11 -33 -54 0 c-67 0 -73 14 -27 62 32 34 37 36 47 20 7 -9 17 -32 23 -49z m-188 -33 c11 -11 20 -29 20 -40 0 -11 -9 -29 -20 -40 -11 -11 -29 -20 -40 -20 -11 0 -29 9 -40 20 -11 11 -20 29 -20 40 0 11 9 29 20 40 11 11 29 20 40 20 11 0 29 -9 40 -20z m-167 -94 c3 -7 -11 -30 -32 -50 l-37 -36 -12 22 c-6 13 -16 35 -22 51 l-10 27 54 0 c36 0 56 -4 59 -14z m357 -13 c-6 -16 -16 -38 -22 -51 l-12 -22 -37 36 c-49 48 -42 64 27 64 l54 0 -10 -27z m-270 -119 l0 -54 -27 10 c-16 6 -38 16 -51 22 l-22 12 36 37 c48 49 64 42 64 -27z m162 -19 c-9 -7 -32 -17 -49 -23 l-33 -11 0 54 c0 67 14 73 62 27 34 -32 36 -37 20 -47z" fill="#ffffff"/>
<path d="M1212 868 c-6 -6 -12 -20 -12 -29 0 -35 23 -40 195 -37 147 3 169 5 179 21 8 12 8 22 0 35 -10 15 -32 17 -180 20 -123 2 -173 -1 -182 -10z" fill="#ffffff"/>
<path d="M1212 668 c-6 -6 -12 -20 -12 -29 0 -35 23 -40 195 -37 147 3 169 5 179 20 8 13 8 23 0 36 -10 15 -32 17 -180 20 -123 2 -173 -1 -182 -10z" fill="#ffffff"/>
</g>
</svg>