<svg xmlns="http://www.w3.org/2000/svg" version="1.0" width="512.000000pt" height="512.000000pt" viewBox="0 0 512.000000 512.000000" preserveAspectRatio="xMidYMid meet">

<g transform="translate(0.000000,512.000000) scale(0.100000,-0.100000)" fill="#ffffff" stroke="none">
<path d="M2380 4954 c-241 -27 -382 -56 -555 -111 -507 -163 -948 -491 -1244 -927 -208 -307 -338 -639 -397 -1018 -25 -158 -25 -518 0 -676 74 -473 259 -879 561 -1230 382 -445 916 -731 1515 -814 123 -17 478 -16 600 1 698 96 1291 459 1679 1026 207 303 338 637 397 1017 25 157 25 518 1 675 -82 521 -313 985 -671 1347 -369 374 -830 607 -1363 691 -93 15 -448 28 -523 19z m462 -901 c15 -13 18 -31 18 -99 0 -108 26 -181 87 -241 63 -63 121 -87 213 -87 96 0 145 22 232 103 42 39 74 61 89 61 18 0 74 -50 211 -187 104 -103 188 -196 188 -205 0 -10 -27 -48 -61 -85 -82 -91 -101 -131 -107 -226 -4 -72 -2 -82 27 -142 57 -115 140 -164 291 -172 65 -4 101 -10 113 -21 15 -14 17 -40 17 -275 0 -286 -2 -297 -60 -297 -22 0 -34 11 -63 55 -45 67 -119 126 -194 156 -51 20 -81 23 -255 27 l-198 4 0 53 c0 254 -138 524 -344 670 -142 100 -270 144 -447 152 -303 14 -570 -122 -737 -378 -77 -117 -132 -303 -132 -444 l0 -53 -197 -4 c-175 -4 -205 -7 -256 -27 -75 -30 -149 -89 -194 -156 -29 -45 -41 -55 -64 -55 -58 0 -59 6 -59 294 0 238 2 264 18 278 12 11 47 17 112 20 142 8 228 55 285 159 27 49 30 63 30 144 0 108 -13 138 -104 238 -34 37 -61 75 -61 85 0 9 84 101 187 204 139 139 194 188 212 188 15 0 47 -22 91 -64 87 -82 155 -110 250 -103 109 7 197 65 248 162 21 42 26 67 30 150 3 71 9 105 20 118 14 15 40 17 280 17 233 0 268 -2 284 -17z m989 -1786 c75 -38 122 -95 144 -172 14 -46 16 -114 13 -447 -3 -383 -4 -394 -25 -434 -33 -61 -70 -101 -122 -132 l-46 -27 -1235 0 c-1162 0 -1237 1 -1267 18 -55 30 -103 78 -131 131 l-27 51 0 416 0 415 30 59 c32 63 100 124 159 143 20 6 457 10 1238 11 l1206 1 63 -33z" fill="#ffffff"/>
<path d="M1715 2076 c-60 -28 -87 -56 -114 -116 -38 -84 -20 -201 42 -269 42 -45 114 -71 200 -71 88 0 134 -15 165 -55 32 -41 38 -88 15 -132 -33 -64 -64 -73 -250 -73 -178 0 -193 -5 -193 -59 0 -50 12 -52 218 -49 l189 3 49 30 c127 79 151 248 51 361 -54 62 -92 76 -214 84 -120 7 -149 22 -173 88 -13 37 -13 47 0 84 27 76 47 83 243 86 185 4 207 10 207 58 0 49 -17 54 -208 54 -165 0 -180 -2 -227 -24z" fill="#ffffff"/>
<path d="M2420 2084 c-45 -20 -96 -69 -123 -119 -21 -38 -22 -54 -25 -359 -3 -289 -1 -320 14 -337 20 -22 66 -25 83 -6 6 8 12 79 13 183 l3 169 175 0 175 0 3 -169 c1 -104 7 -175 13 -183 17 -19 63 -16 83 6 15 17 17 48 14 337 -3 305 -4 321 -25 359 -28 52 -78 100 -125 119 -50 21 -229 21 -278 0z m247 -114 c53 -32 66 -61 67 -153 l1 -82 -175 0 -175 0 1 82 c1 92 14 121 67 153 45 28 169 28 214 0z" fill="#ffffff"/>
<path d="M2986 2084 c-14 -13 -16 -65 -16 -413 0 -295 3 -400 12 -409 17 -17 64 -15 82 4 13 13 16 44 16 185 l0 169 138 0 c123 0 142 3 187 24 60 28 87 56 114 116 28 62 27 141 -3 205 -28 60 -56 87 -116 114 -40 18 -66 21 -222 21 -147 0 -179 -3 -192 -16z m391 -120 c66 -49 66 -159 0 -206 -29 -21 -45 -23 -164 -26 l-133 -4 0 132 0 132 134 -4 c118 -3 138 -6 163 -24z" fill="#ffffff"/>
</g>
</svg>