<svg xmlns="http://www.w3.org/2000/svg" version="1.0" width="512.000000pt" height="512.000000pt" viewBox="0 0 512.000000 512.000000" preserveAspectRatio="xMidYMid meet" transform="matrix(-1, 0, 0, 1, 0, 0)">

<g transform="translate(0.000000,512.000000) scale(0.100000,-0.100000)" fill="#ffffff" stroke="none">
<path d="M1605 5109 c-354 -17 -549 -35 -584 -54 -132 -68 -212 -234 -182 -377 33 -151 220 -461 425 -703 128 -151 388 -425 429 -454 97 -66 155 -70 642 -51 660 26 1319 93 1824 186 271 49 337 77 446 188 113 114 165 237 165 393 0 149 -58 289 -164 397 -73 73 -158 119 -311 169 -476 156 -989 252 -1575 297 -193 15 -890 21 -1115 9z m2201 -794 c15 -23 15 -27 0 -50 l-16 -25 -988 0 c-755 0 -991 3 -1000 12 -7 7 -12 24 -12 38 0 14 5 31 12 38 9 9 245 12 1000 12 l988 0 16 -25z" fill="#ffffff"/>
<path d="M687 5039 c-115 -14 -182 -43 -244 -105 -87 -90 -115 -215 -77 -345 39 -132 176 -354 348 -563 186 -226 423 -480 481 -516 55 -34 141 -50 273 -50 l124 0 -123 128 c-335 347 -513 582 -648 852 -79 157 -95 208 -95 305 0 95 23 177 71 248 18 27 33 51 33 53 0 6 -52 3 -143 -7z" fill="#ffffff"/>
<path d="M3995 3519 c-299 -51 -802 -108 -1145 -130 -102 -6 -202 -14 -222 -18 l-37 -6 195 -470 c282 -680 282 -679 314 -832 42 -195 75 -294 130 -377 49 -74 130 -156 216 -216 67 -48 69 -70 8 -168 -41 -65 -49 -86 -52 -138 -6 -89 19 -140 99 -201 105 -80 112 -89 105 -132 -3 -21 -22 -71 -41 -110 -20 -39 -50 -113 -67 -164 -29 -81 -32 -105 -33 -202 0 -98 3 -116 26 -166 50 -106 148 -175 262 -186 114 -10 317 54 488 155 189 111 353 269 418 405 62 128 73 180 78 374 18 616 -158 1364 -490 2078 -132 285 -130 281 -131 375 -1 47 3 100 7 118 10 37 22 36 -128 11z" fill="#ffffff"/>
<path d="M2486 3219 c-51 -234 -76 -464 -76 -692 0 -191 5 -218 56 -284 14 -18 49 -45 77 -60 50 -27 59 -28 239 -31 l187 -4 -8 29 c-11 37 -298 737 -444 1082 l-15 35 -16 -75z" fill="#ffffff"/>
</g>
</svg>