<svg xmlns="http://www.w3.org/2000/svg" version="1.0" width="512.000000pt" height="512.000000pt" viewBox="0 0 512.000000 512.000000" preserveAspectRatio="xMidYMid meet">

<g transform="translate(0.000000,512.000000) scale(0.100000,-0.100000)" fill="#ffffff" stroke="none">
<path d="M1359 3781 c-24 -19 -24 -20 -27 -269 l-3 -250 24 -28 c28 -33 76 -37 107 -9 18 17 20 30 20 172 0 92 4 153 9 151 6 -1 307 -263 671 -581 l661 -579 -43 -27 c-24 -15 -320 -205 -658 -421 -338 -216 -620 -395 -627 -397 -10 -4 -13 138 -13 716 0 708 0 721 -20 741 -25 25 -71 26 -101 1 l-24 -19 0 -812 0 -812 24 -19 c23 -19 67 -19 1868 -19 l1844 0 24 25 25 24 0 544 c0 606 3 580 -67 593 -26 5 -37 1 -57 -19 l-26 -26 0 -461 c0 -253 -2 -460 -5 -460 -3 0 -272 170 -597 378 -326 209 -624 398 -661 422 -37 23 -67 46 -65 51 2 4 300 268 663 585 l660 577 5 -412 5 -413 24 -19 c32 -26 67 -24 96 6 l25 24 0 506 0 506 -25 24 -24 25 -1844 0 c-1801 0 -1845 0 -1868 -19z m3460 -154 c-15 -12 -340 -296 -723 -632 -383 -335 -720 -623 -749 -640 -44 -26 -62 -30 -122 -30 -57 0 -79 5 -116 26 -40 23 -1489 1282 -1489 1294 0 3 726 5 1613 5 l1612 -1 -26 -22z m-1842 -1373 c97 -74 244 -103 353 -70 48 14 119 50 171 87 12 9 133 -64 640 -387 l624 -399 -767 -3 c-421 -1 -1114 -1 -1538 0 l-771 3 622 398 c343 218 625 397 627 397 3 0 20 -12 39 -26z" fill="#ffffff"/>
<path d="M21 3024 c-28 -35 -26 -69 4 -99 l24 -25 524 0 c515 0 525 0 551 21 33 26 36 79 6 109 -20 20 -33 20 -554 20 l-535 0 -20 -26z" fill="#ffffff"/>
<path d="M356 2588 c-36 -33 -39 -75 -6 -108 19 -19 33 -20 390 -20 357 0 371 1 390 20 30 30 27 83 -6 109 -26 20 -38 21 -385 21 -357 0 -358 0 -383 -22z" fill="#ffffff"/>
<path d="M694 2197 c-35 -31 -38 -82 -5 -109 21 -16 44 -18 222 -18 186 0 200 1 219 20 30 30 27 83 -6 109 -25 20 -40 21 -215 21 -183 0 -189 -1 -215 -23z" fill="#ffffff"/>
</g>
</svg>