<svg xmlns="http://www.w3.org/2000/svg" version="1.0" width="512.000000pt" height="512.000000pt" viewBox="0 0 512.000000 512.000000" preserveAspectRatio="xMidYMid meet">

<g transform="translate(0.000000,512.000000) scale(0.100000,-0.100000)" fill="#ffffff" stroke="none">
<path d="M2325 5110 c-542 -55 -1051 -274 -1445 -621 -69 -61 -80 -74 -80 -103 0 -39 35 -76 72 -76 18 0 57 26 125 83 220 185 429 310 683 410 467 183 976 215 1470 93 848 -211 1531 -892 1745 -1741 55 -219 69 -342 69 -595 0 -253 -14 -376 -69 -595 -170 -676 -642 -1256 -1270 -1565 -173 -85 -300 -132 -470 -175 -219 -55 -342 -69 -595 -69 -253 0 -376 14 -595 69 -846 213 -1527 894 -1740 1740 -55 218 -69 342 -69 585 1 232 15 370 60 560 79 337 232 657 447 933 35 45 69 92 76 104 24 47 -14 103 -70 103 -31 0 -76 -46 -168 -169 -252 -340 -421 -766 -482 -1211 -17 -121 -17 -495 -1 -620 82 -623 356 -1150 820 -1581 256 -239 575 -425 922 -539 274 -91 491 -124 800 -124 228 0 329 9 530 50 689 141 1304 583 1674 1204 175 292 291 632 338 990 16 123 16 497 0 620 -47 358 -163 698 -338 990 -224 375 -529 680 -904 904 -289 173 -634 291 -980 336 -115 15 -444 21 -555 10z" fill="#ffffff"/>
<path d="M2385 4764 c-312 -33 -546 -98 -800 -224 -655 -323 -1100 -933 -1212 -1660 -33 -215 -23 -540 23 -770 77 -383 285 -782 552 -1060 107 -111 85 -122 404 198 217 217 268 272 268 294 0 18 -18 48 -53 89 -226 266 -328 494 -359 806 -46 461 160 926 536 1208 449 338 1070 365 1538 67 32 -21 58 -40 58 -43 0 -12 -845 -751 -870 -761 -113 -44 -180 -97 -222 -174 -121 -226 17 -491 275 -528 55 -8 145 8 199 35 78 40 158 133 178 209 6 24 62 94 175 223 145 165 165 192 165 222 0 22 -8 41 -22 55 -47 43 -80 25 -198 -111 -136 -157 -121 -149 -161 -88 -29 45 -91 103 -144 134 -15 9 63 82 535 498 304 268 561 487 571 487 23 0 49 -26 49 -49 0 -10 -124 -159 -275 -330 -151 -172 -281 -322 -290 -334 -42 -61 19 -138 89 -111 8 3 72 71 142 150 69 79 129 144 133 144 3 0 22 -26 43 -58 253 -397 275 -920 56 -1342 -49 -96 -119 -197 -216 -309 -34 -41 -52 -71 -52 -89 0 -22 51 -77 268 -294 319 -320 297 -309 404 -198 267 278 475 677 552 1060 57 283 57 617 0 900 -85 424 -321 848 -640 1149 -336 319 -739 515 -1199 587 -97 15 -419 26 -500 18z m95 -418 l0 -274 -22 -6 c-13 -3 -38 -6 -56 -6 -55 0 -230 -39 -327 -72 -162 -55 -328 -146 -465 -257 l-64 -52 -194 193 -193 193 53 48 c66 61 219 171 318 229 252 148 576 249 870 271 25 2 53 4 63 5 16 2 17 -17 17 -272z m390 248 c368 -53 730 -217 1020 -463 36 -30 67 -56 69 -58 3 -2 -7 -16 -22 -31 -25 -24 -34 -27 -100 -27 -89 0 -116 -15 -270 -152 l-103 -91 -85 55 c-203 134 -384 195 -706 239 l-33 5 0 274 0 275 63 -6 c34 -3 109 -12 167 -20z m-1438 -1028 c-3 -6 -26 -36 -51 -66 -101 -124 -195 -296 -249 -455 -33 -97 -72 -272 -72 -327 0 -18 -3 -43 -6 -55 l-6 -23 -274 0 -274 0 6 63 c9 108 35 269 55 352 76 305 229 602 433 839 l59 68 193 -193 c106 -106 190 -197 186 -203z m2696 329 c290 -348 446 -731 486 -1192 l6 -63 -275 0 -274 0 -5 33 c-44 322 -105 503 -239 707 l-56 84 67 76 c37 41 86 97 110 124 60 69 75 108 69 181 -5 55 -3 62 21 88 14 15 28 27 31 26 3 0 30 -29 59 -64z m-1458 -1163 c160 -99 107 -343 -81 -377 -117 -22 -233 80 -234 205 0 163 175 259 315 172z m-1616 -274 c3 -13 6 -38 6 -56 0 -52 38 -228 70 -322 56 -168 152 -342 262 -474 l49 -59 -193 -194 c-106 -106 -195 -193 -198 -192 -8 1 -108 123 -164 202 -221 307 -345 652 -380 1055 l-6 62 274 0 274 0 6 -22z m3560 -40 c-35 -403 -159 -748 -380 -1055 -56 -79 -156 -201 -164 -202 -3 -1 -92 86 -198 192 l-193 194 49 59 c110 132 206 306 262 474 32 94 70 270 70 322 0 18 3 43 6 56 l6 22 274 0 274 0 -6 -62z" fill="#ffffff"/>
<path d="M1682 1107 c-20 -21 -22 -34 -22 -123 0 -92 2 -102 23 -122 33 -31 80 -29 106 4 18 23 21 41 21 119 0 78 -3 96 -21 119 -27 34 -77 36 -107 3z" fill="#ffffff"/>
<path d="M3331 1104 c-18 -23 -21 -41 -21 -119 0 -78 3 -96 21 -119 27 -34 77 -36 107 -3 20 21 22 34 22 123 0 92 -2 102 -23 122 -33 31 -80 29 -106 -4z" fill="#ffffff"/>
<path d="M2301 964 c-32 -40 -26 -63 28 -115 62 -60 137 -89 231 -89 94 0 169 29 231 89 54 52 60 75 28 115 -30 39 -74 35 -134 -11 -46 -36 -51 -38 -125 -38 -74 0 -79 2 -125 38 -60 46 -104 50 -134 11z" fill="#ffffff"/>
</g>
</svg>