<svg xmlns="http://www.w3.org/2000/svg" version="1.0" width="512.000000pt" height="512.000000pt" viewBox="0 0 512.000000 512.000000" preserveAspectRatio="xMidYMid meet">

<g transform="translate(0.000000,512.000000) scale(0.100000,-0.100000)" fill="#ffffff" stroke="none">
<path d="M4800 5078 c-58 -23 -967 -380 -2020 -794 -1053 -414 -1925 -762 -1939 -772 -44 -33 -64 -69 -68 -124 -5 -63 16 -109 68 -149 19 -14 394 -187 834 -384 440 -196 805 -363 811 -369 6 -6 172 -371 369 -811 197 -440 370 -815 384 -834 73 -94 203 -94 273 0 10 14 375 929 810 2034 572 1453 792 2024 796 2062 6 66 -25 125 -84 159 -59 35 -109 31 -234 -18z m-64 -355 c-57 -149 -1361 -3460 -1365 -3465 -4 -5 -140 288 -303 650 l-296 657 424 425 c233 234 428 438 434 453 25 68 0 139 -62 177 -36 22 -97 26 -131 9 -12 -6 -212 -201 -444 -432 -413 -412 -423 -421 -450 -411 -107 41 -1291 580 -1285 585 4 3 369 149 812 322 443 174 1221 480 1730 681 509 201 929 365 934 365 4 1 5 -7 2 -16z" fill="#ffffff"/>
<path d="M805 2404 c-5 -1 -23 -5 -40 -9 -22 -5 -123 -99 -373 -348 -189 -188 -355 -361 -369 -385 -20 -34 -24 -52 -20 -83 11 -84 70 -132 155 -126 l54 4 360 359 c200 199 366 373 374 391 8 18 14 44 14 59 0 33 -35 96 -63 114 -24 14 -76 28 -92 24z" fill="#ffffff"/>
<path d="M1855 2051 c-16 -10 -269 -259 -562 -552 -561 -564 -557 -559 -545 -637 6 -43 57 -97 105 -110 82 -23 69 -33 650 546 296 295 545 549 553 564 20 38 18 107 -5 142 -43 65 -133 87 -196 47z" fill="#ffffff"/>
<path d="M2195 944 c-37 -18 -711 -688 -731 -726 -8 -15 -14 -50 -14 -77 0 -42 5 -56 30 -85 37 -42 88 -60 138 -51 32 6 86 55 395 363 197 196 365 369 373 384 8 15 14 47 14 72 0 99 -115 167 -205 120z" fill="#ffffff"/>
</g>
</svg>