<svg xmlns="http://www.w3.org/2000/svg" version="1.0" width="512.000000pt" height="512.000000pt" viewBox="0 0 512.000000 512.000000" preserveAspectRatio="xMidYMid meet">

<g transform="translate(0.000000,512.000000) scale(0.100000,-0.100000)" fill="#ffffff" stroke="none">
<path d="M81 4792 c-19 -9 -44 -30 -55 -45 -21 -28 -21 -40 -24 -620 -2 -549 -1 -595 15 -626 36 -70 53 -75 261 -81 l187 -5 5 -138 c6 -170 4 -167 137 -167 l93 0 0 -80 0 -80 -117 0 c-65 0 -135 -5 -157 -9 -51 -12 -95 -56 -109 -108 l-11 -43 -129 0 c-123 0 -129 -1 -152 -25 l-25 -24 0 -256 c0 -148 4 -264 10 -275 16 -29 66 -40 186 -40 l114 0 0 -560 c0 -546 1 -562 21 -601 29 -59 79 -79 197 -79 l92 0 0 -80 0 -80 -130 0 c-126 0 -132 -1 -155 -25 -25 -24 -25 -26 -25 -205 0 -179 0 -181 25 -205 l24 -25 809 0 c804 0 809 0 836 21 34 27 36 79 4 109 -22 20 -31 20 -785 20 l-763 0 0 80 0 80 1945 0 1945 0 0 -80 0 -80 -1045 0 -1046 0 -24 -25 c-32 -31 -32 -69 0 -100 l24 -25 1096 0 1096 0 24 25 c25 24 25 26 25 205 0 247 19 230 -260 230 l-210 0 0 80 0 80 328 0 c256 0 341 4 391 15 174 41 310 176 356 352 22 85 22 1201 0 1286 -42 162 -159 287 -318 340 -58 19 -89 21 -484 25 l-423 4 0 125 c0 124 0 125 -29 154 l-29 29 -281 0 -280 0 -3 368 c-3 354 -4 369 -26 424 -43 107 -113 176 -223 221 -51 20 -74 21 -371 25 l-318 4 0 78 c0 73 -2 80 -26 99 -24 19 -40 21 -155 21 l-129 0 0 104 c0 90 -3 107 -23 137 -42 64 -66 69 -305 69 -213 0 -213 0 -237 -25 -14 -13 -25 -36 -25 -50 0 -14 11 -37 25 -50 24 -25 25 -25 220 -25 l195 0 0 -545 0 -545 -855 0 -855 0 0 545 0 545 523 0 524 0 21 23 c31 33 29 80 -4 106 -26 21 -36 21 -563 21 -491 0 -539 -2 -570 -18z m2089 -602 l0 -161 -77 3 -78 3 -3 158 -3 157 81 0 80 0 0 -160z m802 -64 c47 -23 91 -68 115 -115 16 -32 18 -73 21 -393 l3 -357 -290 -3 c-362 -4 -334 10 -339 -177 l-4 -128 -96 -5 c-136 -7 -179 -32 -203 -120 l-10 -38 -79 0 c-79 0 -80 0 -80 25 0 38 -25 80 -62 107 -33 23 -37 23 -336 26 l-303 3 3 77 3 77 97 3 c91 3 98 4 118 29 18 23 20 40 20 154 l0 129 176 0 c278 0 284 6 284 279 l0 181 129 0 c115 0 131 2 155 21 25 20 26 24 26 128 0 59 3 111 7 115 4 4 143 6 308 4 268 -3 304 -5 337 -22z m-1572 -786 l0 -80 -390 0 -390 0 0 80 0 80 390 0 390 0 0 -80z m-240 -310 l0 -80 -155 0 -155 0 0 80 0 80 155 0 155 0 0 -80z m2568 -2 l3 -78 -546 0 -545 0 0 80 0 80 543 -2 542 -3 3 -77z m-2178 -1088 l0 -860 -545 0 -545 0 0 853 c0 470 3 857 7 860 3 4 249 7 545 7 l538 0 0 -860z m310 0 l0 -860 -80 0 -80 0 0 853 c0 470 3 857 7 860 3 4 39 7 80 7 l73 0 0 -860z m2490 668 c4 -159 8 -191 22 -208 26 -30 81 -27 107 6 20 25 21 40 21 210 l0 184 63 0 c196 0 310 -60 379 -199 l23 -46 0 -615 c0 -609 0 -615 -22 -662 -30 -66 -96 -133 -162 -165 -48 -22 -73 -27 -168 -31 l-113 -5 0 526 c0 294 -4 536 -9 550 -20 51 -105 56 -130 8 -7 -13 -11 -195 -11 -550 l0 -531 -1012 2 -1013 3 -3 845 c-1 465 0 851 3 858 3 10 211 12 1012 10 l1008 -3 5 -187z m-4040 -128 l0 -160 -80 0 -80 0 0 160 0 160 80 0 80 0 0 -160z m1860 -540 l0 -700 -80 0 -80 0 0 700 0 700 80 0 80 0 0 -700z m4 -866 c3 -9 6 -24 6 -34 0 -27 49 -80 87 -96 23 -10 85 -14 223 -14 l190 0 0 -80 0 -80 -645 0 -645 0 0 80 0 80 250 0 c273 0 298 4 339 55 12 16 24 40 27 54 3 14 7 32 10 39 2 8 27 12 78 12 58 0 75 -3 80 -16z m-934 -224 l0 -80 -235 0 -235 0 0 80 0 80 235 0 235 0 0 -80z m2640 0 l0 -80 -525 0 -525 0 0 80 0 80 525 0 525 0 0 -80z" fill="#ffffff"/>
<path d="M641 2604 c-12 -15 -21 -34 -21 -44 0 -10 9 -29 21 -44 41 -52 129 -23 129 44 0 67 -88 96 -129 44z" fill="#ffffff"/>
<path d="M1261 2604 c-12 -15 -21 -34 -21 -44 0 -10 9 -29 21 -44 41 -52 129 -23 129 44 0 67 -88 96 -129 44z" fill="#ffffff"/>
<path d="M641 1364 c-34 -43 -26 -86 20 -110 35 -18 74 -10 94 19 53 76 -57 163 -114 91z" fill="#ffffff"/>
<path d="M1265 1365 c-28 -27 -30 -42 -14 -78 11 -25 47 -47 75 -47 26 0 64 47 64 80 0 65 -77 93 -125 45z" fill="#ffffff"/>
<path d="M2507 2612 c-24 -27 -22 -85 4 -108 20 -18 49 -19 826 -19 l805 0 24 28 c29 34 30 56 3 91 l-20 26 -813 0 c-775 0 -814 -1 -829 -18z" fill="#ffffff"/>
<path d="M2507 2302 c-24 -27 -22 -85 4 -108 20 -18 49 -19 826 -19 l805 0 24 28 c29 34 30 56 3 91 l-20 26 -813 0 c-775 0 -814 -1 -829 -18z" fill="#ffffff"/>
<path d="M2512 1994 c-30 -21 -31 -83 -1 -110 20 -18 49 -19 826 -19 l805 0 24 28 c29 34 30 56 3 91 l-20 26 -808 0 c-714 0 -809 -2 -829 -16z" fill="#ffffff"/>
<path d="M2512 1684 c-33 -23 -31 -86 4 -113 26 -21 33 -21 815 -21 556 0 795 3 812 11 24 11 47 47 47 73 0 7 -9 25 -21 40 l-20 26 -808 0 c-714 0 -809 -2 -829 -16z" fill="#ffffff"/>
<path d="M2510 1370 c-30 -30 -27 -83 6 -109 26 -21 33 -21 815 -21 556 0 795 3 812 11 24 11 47 47 47 73 0 7 -9 25 -21 40 l-20 26 -810 0 c-796 0 -809 0 -829 -20z" fill="#ffffff"/>
<path d="M392 4483 c-18 -9 -43 -30 -55 -47 -21 -30 -22 -40 -25 -311 -3 -314 0 -327 67 -373 l35 -23 447 3 447 3 27 25 c54 50 55 57 55 358 0 273 0 280 -23 313 -46 69 -43 69 -517 69 -371 0 -429 -3 -458 -17z m848 -368 l0 -235 -390 0 -390 0 0 235 0 235 390 0 390 0 0 -235z" fill="#ffffff"/>
<path d="M663 4180 c-47 -19 -56 -78 -18 -115 22 -23 31 -25 125 -25 56 0 110 5 121 11 48 25 44 105 -7 128 -29 13 -189 14 -221 1z" fill="#ffffff"/>
<path d="M1593 4488 c-48 -23 -51 -103 -4 -127 78 -42 154 64 85 118 -29 23 -48 25 -81 9z" fill="#ffffff"/>
<path d="M1593 4178 c-48 -23 -51 -103 -4 -127 80 -43 155 63 85 118 -29 23 -48 25 -81 9z" fill="#ffffff"/>
</g>
</svg>